<svg width="26" height="20" viewBox="0 0 26 20" fill="none" xmlns="http://www.w3.org/2000/svg">
<path fill-rule="evenodd" clip-rule="evenodd" d="M26 9.99981C26 9.21106 25.3621 8.57145 24.5753 8.57145L4.86358 8.57145L10.9795 2.43861C11.5361 1.88096 11.5361 0.976014 10.9795 0.418367C10.7017 0.139543 10.3367 1.36933e-06 9.97224 1.40119e-06C9.60778 1.43305e-06 9.2428 0.139543 8.96499 0.418367L0.417874 8.98904C0.351138 9.05569 0.291387 9.1291 0.239137 9.20795C0.216115 9.24218 0.200336 9.27979 0.180936 9.31584C0.155587 9.36124 0.128427 9.40507 0.108251 9.45357C0.088851 9.50078 0.0777274 9.5498 0.0637598 9.5983C0.0516024 9.63928 0.0358248 9.67793 0.0275469 9.72021C-0.00918286 9.90488 -0.00918284 10.0953 0.027547 10.2797C0.0358249 10.3219 0.0516025 10.3609 0.0637599 10.4016C0.0777274 10.4501 0.0888511 10.4991 0.108251 10.5463C0.128427 10.5945 0.155845 10.6386 0.180936 10.6843C0.200595 10.7203 0.216115 10.7574 0.239137 10.7919C0.291387 10.8708 0.351138 10.9444 0.417875 11.0111L8.965 19.5818C9.52087 20.1394 10.4236 20.1394 10.9795 19.5818C11.5361 19.0236 11.5361 18.1192 10.9795 17.5613L4.86358 11.4284L24.5753 11.4284C25.3621 11.4284 26 10.7888 26 9.99981Z" fill="#046BAC"/>
</svg>
