<svg width="16" height="16" viewBox="0 0 16 16" fill="none" xmlns="http://www.w3.org/2000/svg">
<path d="M5.6 7.19995H4V8.79995H5.6V7.19995Z" fill="#C59766"/>
<path d="M8.79995 7.19995H7.19995V8.79995H8.79995V7.19995Z" fill="#C59766"/>
<path d="M11.9999 7.19995H10.3999V8.79995H11.9999V7.19995Z" fill="#C59766"/>
<path d="M5.6 10.3999H4V11.9999H5.6V10.3999Z" fill="#C59766"/>
<path d="M8.79995 10.3999H7.19995V11.9999H8.79995V10.3999Z" fill="#C59766"/>
<path d="M11.9999 10.3999H10.3999V11.9999H11.9999V10.3999Z" fill="#C59766"/>
<path d="M15.2 1.6H13.6V0.8C13.6 0.32 13.28 0 12.8 0C12.32 0 12 0.32 12 0.8V1.6H4V0.8C4 0.32 3.68 0 3.2 0C2.72 0 2.4 0.32 2.4 0.8V1.6H0.8C0.32 1.6 0 1.92 0 2.4V15.2C0 15.68 0.32 16 0.8 16H15.2C15.6 16 16 15.68 16 15.2V2.4C16 1.92 15.6 1.6 15.2 1.6ZM14.4 14.4H1.6V4.8H14.4V14.4Z" fill="#C59766"/>
</svg>
