<svg xmlns="http://www.w3.org/2000/svg" id="email" width="18.849" height="18.849" viewBox="0 0 18.849 18.849">
    <defs>
        <style>
            .cls-1{fill:#003767}
        </style>
    </defs>
    <path id="Path_44" d="M141.23 144h-7.6l3.8 3.259zm0 0" class="cls-1" transform="translate(-128.003 -137.941)"/>
    <path id="Path_45" d="M124.376 157.035a.336.336 0 0 1-.219-.081L120 153.391v6.337h8.751v-6.337l-4.157 3.563a.336.336 0 0 1-.218.081zm0 0" class="cls-1" transform="translate(-114.951 -146.937)"/>
    <path id="Path_46" d="M9.424 0a9.424 9.424 0 1 0 9.424 9.424A9.425 9.425 0 0 0 9.424 0zm5.049 13.127a.337.337 0 0 1-.337.337H4.712a.337.337 0 0 1-.337-.337v-7.4a.337.337 0 0 1 .337-.337h9.424a.337.337 0 0 1 .337.337zm0 0" class="cls-1"/>
</svg>
