<svg width="34" height="46" viewBox="0 0 34 46" fill="none" xmlns="http://www.w3.org/2000/svg">
<path d="M23.4099 8.48087H33.569V0C29.3845 3.76284 25.806 6.63835 23.4099 8.48087Z" fill="#A7A1C2"/>
<path d="M33.7031 18.975V25.4313C20.4652 29.6808 8.14035 42.787 5.26738 46.0002H1.90769C9.13993 37.6319 21.4272 25.2293 33.7031 18.975ZM7.87086 46.0002H11.3432C15.2174 42.643 23.1373 36.8539 33.7031 34.8309V29.7603C27.5602 31.52 16.9455 36.5327 7.87086 46.0002ZM33.7031 46.0002V38.6533C26.9902 39.7095 19.6927 42.0867 14.0415 46.0002H33.7031ZM23.4688 11.8003V20.2828C27.655 16.52 31.2319 13.6445 33.6279 11.8003H23.4688ZM21.3113 22.1949H11.1685V32.3378C14.6801 28.5319 18.1345 25.1333 21.3113 22.1949ZM0 34.8491V45.8446C2.8795 41.9162 5.88967 38.2395 8.89493 34.8491H0Z" fill="#A7A1C2"/>
</svg>
