<svg width="13" height="18" viewBox="0 0 13 18" fill="none" xmlns="http://www.w3.org/2000/svg">
<path fill-rule="evenodd" clip-rule="evenodd" d="M12.0487 15.7103L10.7105 13.1902C10.5103 12.8129 10.0747 12.5692 9.60124 12.5692C9.48397 12.5692 9.36713 12.5841 9.25377 12.6135L7.66325 12.9817C7.43436 12.8083 6.70208 12.1152 5.39648 9.65651C4.08306 7.18335 3.95363 6.25458 3.95103 5.99451L5.29485 5.15778C5.79606 4.86524 5.98152 4.28514 5.727 3.80548L4.38883 1.2855C4.18079 0.893448 3.72778 0.640137 3.23525 0.640137C2.99072 0.640137 2.75227 0.702195 2.54597 0.819666L1.74593 1.27481C1.03536 1.6606 0.534578 2.24685 0.257475 3.01725C0.0138157 3.69473 -0.0574146 4.51848 0.0459562 5.46673C0.219689 7.06076 0.904194 9.04777 1.97352 11.0619C2.89908 12.8045 4.02095 14.3832 5.13327 15.5068C6.55136 16.9396 7.9473 17.666 9.28244 17.666C9.64988 17.666 10.0139 17.6095 10.3648 17.498L11.2717 17.2517C11.623 17.1562 11.9101 16.932 12.0591 16.6364C12.2081 16.3408 12.2042 16.0032 12.0487 15.7103" fill="white"/>
</svg>
