<svg id="heart" xmlns="http://www.w3.org/2000/svg" width="11.225" height="10.205" viewBox="0 0 11.225 10.205">
  <defs>
    <style>
      .cls-1 {
        fill: #fff;
      }
    </style>
  </defs>
  <g id="Group_3040" data-name="Group 3040">
    <g id="Group_3039" data-name="Group 3039">
      <path id="Path_640" data-name="Path 640" class="cls-1" d="M99.164,121a2.956,2.956,0,0,0-2.551,1.567A2.956,2.956,0,0,0,94.061,121a2.9,2.9,0,0,0-2.229,1.031A3.607,3.607,0,0,0,91,124.386a4.358,4.358,0,0,0,1.145,2.823,25.263,25.263,0,0,0,2.807,2.7c.421.369.856.751,1.319,1.167a.51.51,0,0,0,.683,0c.463-.416.9-.8,1.319-1.167a25.262,25.262,0,0,0,2.807-2.7,4.358,4.358,0,0,0,1.145-2.823A3.186,3.186,0,0,0,99.164,121Z" transform="translate(-91 -121)"/>
    </g>
  </g>
</svg>
