<svg width="6" height="9" viewBox="0 0 6 9" fill="none" xmlns="http://www.w3.org/2000/svg">
<path d="M3 0C1.34583 0 0 1.34583 0 3C0 3.49658 0.124154 3.98894 0.360175 4.42565L2.83594 8.9033C2.8689 8.963 2.93171 8.99998 3 8.99998C3.06829 8.99998 3.1311 8.963 3.16406 8.9033L5.64074 4.42418C5.87585 3.98894 6 3.49656 6 2.99998C6 1.34583 4.65417 0 3 0ZM3 4.49999C2.17292 4.49999 1.50001 3.82708 1.50001 3C1.50001 2.17292 2.17292 1.50001 3 1.50001C3.82708 1.50001 4.49999 2.17292 4.49999 3C4.49999 3.82708 3.82708 4.49999 3 4.49999Z" fill="black"/>
</svg>
