<?xml version="1.0" encoding="utf-8"?>
<!-- Generator: Adobe Illustrator 16.0.0, SVG Export Plug-In . SVG Version: 6.00 Build 0)  -->
<!DOCTYPE svg PUBLIC "-//W3C//DTD SVG 1.1//EN" "http://www.w3.org/Graphics/SVG/1.1/DTD/svg11.dtd">
<svg version="1.1" id="heart" xmlns="http://www.w3.org/2000/svg" xmlns:xlink="http://www.w3.org/1999/xlink" x="0px" y="0px"
	 width="11.225px" height="10.205px" viewBox="0 0 11.225 10.205" enable-background="new 0 0 11.225 10.205" xml:space="preserve">
<g id="Group_3040">
	<g id="Group_3039">
		<path id="Path_640" fill="#818181" d="M8.164,0C7.092,0.021,6.116,0.621,5.613,1.567C5.11,0.621,4.133,0.021,3.061,0
			C2.202-0.003,1.386,0.374,0.832,1.031C0.283,1.692-0.012,2.527,0,3.386C0.03,4.434,0.436,5.437,1.145,6.209
			c0.865,0.971,1.804,1.874,2.808,2.7c0.421,0.369,0.855,0.751,1.318,1.167c0.194,0.175,0.489,0.175,0.684,0
			c0.463-0.416,0.899-0.8,1.318-1.167c1.004-0.826,1.942-1.729,2.808-2.7c0.709-0.772,1.115-1.775,1.145-2.823
			c0.112-1.756-1.222-3.27-2.978-3.381C8.22,0.002,8.192,0.001,8.164,0z"/>
	</g>
</g>
</svg>
