<svg width="21" height="14" viewBox="0 0 21 14" fill="none" xmlns="http://www.w3.org/2000/svg">
<path fill-rule="evenodd" clip-rule="evenodd" d="M10.5695 9.11294C10.4526 9.17995 10.3214 9.2137 10.1906 9.2137C10.0594 9.2137 9.9281 9.17995 9.81126 9.11294L0.318601 3.67764C0.177796 3.59713 0 3.69548 0 3.85409V12.1097C0 12.9674 0.71735 13.6631 1.60211 13.6631H18.7786C19.6636 13.6631 20.3811 12.9674 20.3811 12.1097V3.85409C20.3811 3.69548 20.2031 3.59713 20.0624 3.67764L10.5695 9.11294Z" fill="white"/>
<path fill-rule="evenodd" clip-rule="evenodd" d="M10.612 7.54636L20.2769 2.2029C20.3455 2.16471 20.3873 2.09345 20.3803 2.01894C20.3112 1.25046 19.6212 0.644531 18.783 0.644531H1.59789C0.759748 0.644531 0.0696958 1.25046 0.000700496 2.01894C-0.00596524 2.09345 0.035422 2.16471 0.104318 2.2029L9.76888 7.54636C10.029 7.69028 10.3519 7.69028 10.612 7.54636Z" fill="white"/>
</svg>
