<svg xmlns="http://www.w3.org/2000/svg" id="phone-call" width="18.849" height="18.849" viewBox="0 0 18.849 18.849">
    <defs>
        <style>
            .cls-1{fill:#003767}
        </style>
    </defs>
    <path id="Path_47" d="M126.07 125.8l-.721 1.38a.337.337 0 0 1-.418.159 6.067 6.067 0 0 1-3.527-3.528.337.337 0 0 1 .159-.418l1.38-.72-.435-2.466a1.683 1.683 0 0 0-2.508 1.464 7.077 7.077 0 0 0 7.068 7.068 1.683 1.683 0 0 0 1.467-2.508zm0 0" class="cls-1" transform="translate(-114.951 -114.94)"/>
    <path id="Path_48" d="M9.424 0a9.424 9.424 0 1 0 9.424 9.424A9.425 9.425 0 0 0 9.424 0zm2.693 14.473a7.75 7.75 0 0 1-7.741-7.741A2.356 2.356 0 0 1 8.051 4.78a.336.336 0 0 1 .142.22l.5 2.857a.336.336 0 0 1-.176.357L7.2 8.906a5.392 5.392 0 0 0 2.748 2.749l.692-1.328a.336.336 0 0 1 .357-.176l2.857.5a.336.336 0 0 1 .22.143 2.356 2.356 0 0 1-1.953 3.674zm0 0" class="cls-1"/>
</svg>
