<svg width="22" height="23" viewBox="0 0 22 23" fill="none" xmlns="http://www.w3.org/2000/svg">
<path d="M20.8265 21.0224L17.4032 16.6367C17.0418 17.0486 16.6443 17.4278 16.2168 17.7706L19.5432 22.0326C19.699 22.2317 19.9326 22.3463 20.1853 22.3463C20.3692 22.3463 20.5431 22.2863 20.688 22.1717C20.8591 22.0372 20.9678 21.8435 20.9941 21.6261C21.0203 21.4088 20.9606 21.1942 20.8265 21.0224Z" fill="white" stroke="white"/>
<path d="M17.403 16.6367C18.8611 14.9772 19.7468 12.7984 19.7468 10.4115C19.7468 5.2138 15.5501 1 10.3734 1C5.19675 1 1 5.2138 1 10.4115C1 15.6092 5.19675 19.823 10.3734 19.823C12.5832 19.823 14.6145 19.0546 16.2166 17.7697C16.6441 17.4278 17.0407 17.0477 17.403 16.6367ZM10.3734 18.368C6.00368 18.368 2.44903 14.799 2.44903 10.4115C2.44903 6.024 6.00368 2.45491 10.3734 2.45491C14.7431 2.45491 18.2978 6.024 18.2978 10.4115C18.2978 14.799 14.7431 18.368 10.3734 18.368Z" fill="white" stroke="white"/>
</svg>
