<svg width="49" height="52" viewBox="0 0 49 52" fill="none" xmlns="http://www.w3.org/2000/svg">
<path d="M47.1569 47.6128L39.1873 37.4028C38.346 38.3618 37.4204 39.2446 36.4253 40.0427L44.1694 49.9648C44.532 50.4284 45.076 50.6951 45.6642 50.6951C46.0922 50.6951 46.497 50.5554 46.8344 50.2887C47.2328 49.9753 47.4858 49.5244 47.547 49.0185C47.6081 48.5125 47.469 48.0129 47.1569 47.6128Z" fill="#333851" stroke="#333851"/>
<path d="M39.1869 37.4029C42.5814 33.5395 44.6434 28.4673 44.6434 22.9104C44.6434 10.8099 34.8732 1 22.8217 1C10.7702 1 1 10.8099 1 22.9104C1 35.0108 10.7702 44.8207 22.8217 44.8207C27.9662 44.8207 32.6952 43.0319 36.425 40.0406C37.4201 39.2447 38.3436 38.3598 39.1869 37.4029ZM22.8217 41.4336C12.6488 41.4336 4.3734 33.1246 4.3734 22.9104C4.3734 12.6961 12.6488 4.38711 22.8217 4.38711C32.9946 4.38711 41.27 12.6961 41.27 22.9104C41.27 33.1246 32.9946 41.4336 22.8217 41.4336Z" fill="#333851" stroke="#333851"/>
</svg>
