<svg width="157" height="165" viewBox="0 0 157 165" fill="none" xmlns="http://www.w3.org/2000/svg">
<rect width="157" height="165" fill="#C0B5F4"/>
<path fill-rule="evenodd" clip-rule="evenodd" d="M130.729 142.391C130.299 134.136 121.952 128.747 117.088 126.295L113.648 124.763L106.814 121.721C103.703 120.422 99.6444 118.548 99.6444 118.548C97.3505 115.488 94.4712 113.572 93.651 113.061L93.6255 111.451H93.8949C112.089 110.518 117.89 107.455 119.625 106.045L116.836 103.694C115.411 102.806 113.839 101.584 112.361 99.9219L116.836 103.694C118.179 104.533 119.388 105.074 120.261 105.405C120.299 105.352 120.313 105.323 120.313 105.323C116.539 102.696 113.843 92.3659 113.843 92.3659C111.687 87.288 110.069 68.9043 110.069 68.9043C110.069 63.6514 107.913 58.2236 107.913 58.2236C103.959 47.1931 95.1534 42.1152 95.1534 42.1152C94.4304 41.6988 93.6977 41.3272 92.9641 40.9885C92.2305 40.6791 87.6709 38.8286 82.0681 38.1653C78.6407 37.8452 76.283 38.0885 76.283 38.0885C74.4015 38.2341 72.6376 38.5514 70.9898 38.9942C68.4719 39.8186 66.0873 41.1867 64.0623 43.3228C64.0623 43.3228 64.0489 43.2856 63.9378 43.2781C56.6414 40.5889 51.3348 54.8892 51.3228 54.9203C49.7602 58.3813 48.337 64.2208 48.337 64.2208L47.2585 75.9077C46.4495 85.8882 42.2713 98.3631 42.2713 98.3631C40.6541 102.96 37.5535 105.192 37.5535 105.192C38.2663 105.857 39.1378 106.451 40.1251 106.982C40.6921 106.716 42.0459 106.049 43.3308 105.171L46.0454 102.286C45.6876 103.328 44.5411 104.343 43.3308 105.171L41.1493 107.49C45.9875 109.718 52.9483 110.665 57.9874 111.067C58.5053 107.979 59.3741 101.7 58.9612 96.2572C58.8164 94.9207 58.715 94.0755 58.715 94.0755C58.8242 94.7807 58.9048 95.5115 58.9612 96.2572C59.3635 99.9559 60.1026 107.425 59.9814 111.206C62.6238 111.364 64.3771 111.364 64.3771 111.364L64.3294 114.544C61.755 115.014 57.9791 119.845 57.9791 119.845C57.5463 119.769 54.7303 120.963 52.1944 122.095C50.7165 122.716 49.0433 123.451 47.2821 124.287C43.7205 125.689 39.3104 128.357 39.3104 128.357C36.4213 129.718 34.3774 131.422 32.9291 133.175C32.4394 133.611 31.9775 134.055 31.5433 134.504C31.5433 134.504 27 138.744 27 143.361V165H27.8118H29.4351H30.9227H32.4112H130.729C130.729 165 131.338 154.075 130.729 142.391Z" fill="#9C8EDF"/>
</svg>
