<svg width="157" height="165" viewBox="0 0 157 165" fill="none" xmlns="http://www.w3.org/2000/svg">
<rect width="157" height="165" fill="#C0B5F4"/>
<path fill-rule="evenodd" clip-rule="evenodd" d="M137.69 140.748C137.198 131.894 127.648 126.113 122.083 123.482L118.145 121.839L110.326 118.576C106.766 117.183 102.122 115.172 102.122 115.172C99.0266 111.303 95.0014 109.137 95.0014 109.137V102.174C98.5613 97.6863 98.252 91.4966 98.252 91.4966L99.0266 91.8062C101.038 93.9724 101.503 90.8777 101.503 90.8777C103.205 87.7826 103.67 83.9141 103.67 83.9141C103.67 82.676 105.373 77.879 105.373 77.879C105.992 74.4743 102.277 75.0936 102.277 75.0936C107.075 67.9754 102.277 55.7506 102.277 55.7506C99.0266 48.0136 93.2991 44.9195 93.2991 44.9195C84.1668 39.3486 72.0932 41.051 72.0932 41.051L72.7122 40.2771C73.0215 39.3486 79.6773 39.0394 79.6773 39.0394C68.2231 38.5752 65.9017 42.3661 65.9017 42.3661C65.4374 41.6698 68.0685 39.0394 68.0685 39.0394C60.9479 43.063 61.8771 45.6933 61.8771 45.6933C58.1616 44.9589 54.5637 48.9811 54.5637 48.9811L57.0016 48.1687C52.8223 50.0256 53.0545 55.0162 53.0545 55.0162L54.7569 53.5831C54.3673 54.1026 54.0325 54.6541 53.7473 55.2316C49.6098 63.6014 55.8403 77.4139 55.8403 77.4139C51.3512 71.3788 51.9707 80.8186 51.9707 80.8186C52.5901 81.4374 53.8281 85.3059 53.8281 85.3059C54.6023 87.3179 55.8403 90.2575 55.8403 90.2575C57.5431 94.8999 58.7811 91.9603 58.7811 91.9603C59.0904 98.9239 62.1868 102 62.1868 102L62.0317 110.839C59.0904 110.994 54.4472 116.564 54.4472 116.564C53.9517 116.482 50.7294 117.763 47.828 118.977C46.1373 119.642 44.2222 120.433 42.2073 121.329C38.132 122.832 33.0862 125.695 33.0862 125.695C29.7803 127.154 27.4422 128.982 25.7849 130.863C25.2239 131.331 24.696 131.806 24.1986 132.288C24.1986 132.288 19 136.836 19 141.789V165H19.9287H21.7867H23.4891H25.1919H137.69C137.69 165 138.387 153.282 137.69 140.748Z" fill="#9C8EDF"/>
</svg>
