<svg width="350" height="321" viewBox="0 0 350 321" fill="none" xmlns="http://www.w3.org/2000/svg">
<rect width="350" height="321" fill="#242B58"/>
<mask id="mask0_390_1416" style="mask-type:alpha" maskUnits="userSpaceOnUse" x="0" y="0" width="350" height="321">
<rect width="350" height="321" fill="white"/>
</mask>
<g mask="url(#mask0_390_1416)">
</g>
<path d="M105.228 136.949H120.95V124C114.474 129.745 108.936 134.136 105.228 136.949Z" fill="#A7A1C2"/>
<path d="M121.157 152.971V162.829C100.671 169.317 81.5975 189.328 77.1515 194.234H71.9522C83.1444 181.457 102.159 162.521 121.157 152.971ZM81.1805 194.234H86.5541C92.5496 189.108 104.806 180.269 121.157 177.181V169.439C111.651 172.125 95.2238 179.779 81.1805 194.234ZM121.157 194.234V183.017C110.768 184.629 99.4752 188.259 90.7297 194.234H121.157ZM105.319 142.017V154.968C111.797 149.223 117.333 144.832 121.041 142.017H105.319ZM101.98 157.887H86.2837V173.374C91.718 167.563 97.0639 162.374 101.98 157.887ZM69 177.208V193.997C73.4561 187.999 78.1145 182.385 82.7653 177.208H69Z" fill="#A7A1C2"/>
<path d="M129.404 175.934C132.015 175.588 133.408 174.658 133.408 172.454V147.218C133.408 145.014 132.015 144.087 129.404 143.738V141.825H145.3V143.738C142.689 144.087 141.297 145.002 141.297 147.218V172.454C141.297 174.6 142.457 175.818 145.594 175.644L151.685 175.356C155.454 175.181 157.195 173.963 158.646 171.584L159.864 169.562H161.661L160.676 173.101C160.213 174.782 159.917 175.881 160.097 177.858H129.404V175.934Z" fill="white"/>
<path d="M165.258 162.533V147.218C165.258 145.014 163.865 144.087 161.254 143.738V141.825H177.15V143.738C174.539 144.087 173.147 145.002 173.147 147.218V161.719C173.147 170.819 176.802 174.655 182.372 174.655C187.708 174.655 192.061 171.175 192.061 162.068V147.218C192.061 145.014 190.435 144.087 187.824 143.738V141.825H199.542V143.738C196.934 144.087 195.309 145.002 195.309 147.218V163.115C195.309 172.57 190.319 178.429 180.631 178.429C171.757 178.429 165.258 173.614 165.258 162.533Z" fill="white"/>
<path d="M200.068 159.867C200.068 147.8 209.815 140.894 220.256 140.894C229.54 140.894 234.527 145.884 234.527 150.466C234.527 152.789 233.192 155.168 230.061 155.168C227.28 155.168 225.653 153.252 225.653 150.699C225.653 147.16 223.853 143.043 218.575 143.043C212.891 143.043 208.538 148.262 208.538 156.965C208.538 167.755 215.848 173.847 223.62 173.847C226.871 173.847 230.177 172.745 233.192 169.38L234.527 170.482C233.01 173.263 228.264 178.429 219.503 178.429C209.345 178.429 200.068 171.526 200.068 159.867Z" fill="white"/>
<path d="M275.315 175.993V177.85H259.823V175.935C263.303 175.414 263.303 173.789 262.201 171.352L261.274 169.33C260.516 168.112 259.535 167.763 258.084 167.763H248.522C246.955 167.763 245.969 168.112 245.213 169.504L244.577 171.021C243.358 173.801 244.751 175.432 248.464 175.952V177.868H235.573V175.952C238.821 175.315 240.039 173.574 241.387 170.558L251.469 147.565C252.629 144.954 252.92 142.924 252.92 141.822L257.27 141.415L269.754 169.148C271.715 173.498 272.355 175.368 275.315 175.993ZM258.782 163.81L253.726 152.557C253.322 151.571 253.031 151.571 252.624 152.557L247.643 163.994C247.352 164.806 247.931 165.154 248.512 165.154H257.968C258.605 165.144 259.186 164.752 258.779 163.81H258.782Z" fill="white"/>
<path d="M129.432 184.829H130.736V193.231H135.157V194.454H129.432V184.829Z" fill="white"/>
<path d="M136.408 188.797C136.754 188.481 137.161 188.238 137.604 188.085C138.04 187.929 138.5 187.848 138.964 187.847C139.376 187.838 139.787 187.897 140.179 188.024C140.488 188.122 140.773 188.284 141.016 188.499C141.228 188.688 141.393 188.923 141.499 189.187C141.604 189.443 141.657 189.718 141.656 189.995V193.281C141.656 193.506 141.656 193.716 141.671 193.906C141.686 194.095 141.691 194.277 141.711 194.449H140.622C140.596 194.123 140.581 193.797 140.581 193.471H140.556C140.325 193.851 139.99 194.158 139.591 194.356C139.183 194.533 138.741 194.619 138.296 194.608C138.007 194.61 137.719 194.568 137.442 194.485C137.182 194.41 136.939 194.286 136.727 194.118C136.523 193.955 136.358 193.748 136.244 193.514C136.122 193.252 136.062 192.966 136.067 192.677C136.054 192.309 136.151 191.944 136.345 191.631C136.538 191.343 136.798 191.107 137.103 190.943C137.456 190.756 137.837 190.627 138.231 190.562C138.687 190.484 139.148 190.446 139.611 190.448H140.508V190.175C140.507 190.007 140.476 189.841 140.415 189.685C140.349 189.521 140.252 189.371 140.129 189.245C139.994 189.108 139.831 189.001 139.651 188.931C139.434 188.848 139.203 188.809 138.971 188.815C138.764 188.812 138.556 188.835 138.355 188.883C138.189 188.924 138.027 188.981 137.872 189.053C137.732 189.117 137.599 189.198 137.477 189.293L137.136 189.546L136.408 188.797ZM139.861 191.355C139.564 191.355 139.267 191.371 138.971 191.403C138.688 191.429 138.41 191.49 138.142 191.585C137.911 191.663 137.702 191.794 137.531 191.967C137.451 192.05 137.388 192.148 137.347 192.255C137.306 192.362 137.287 192.476 137.29 192.591C137.277 192.746 137.305 192.902 137.371 193.043C137.436 193.184 137.537 193.305 137.664 193.395C137.97 193.575 138.321 193.663 138.676 193.648C138.97 193.656 139.263 193.597 139.532 193.476C139.754 193.375 139.949 193.224 140.104 193.036C140.247 192.857 140.354 192.651 140.417 192.43C140.479 192.215 140.51 191.993 140.511 191.77V191.363L139.861 191.355Z" fill="white"/>
<path d="M147.095 189.07H145.341V191.995C145.341 192.174 145.341 192.354 145.356 192.531C145.36 192.694 145.395 192.855 145.457 193.006C145.512 193.144 145.606 193.262 145.728 193.347C145.89 193.443 146.078 193.488 146.266 193.476C146.416 193.476 146.566 193.462 146.713 193.436C146.862 193.411 147.005 193.36 147.136 193.286V194.401C146.96 194.493 146.769 194.55 146.572 194.57C146.395 194.598 146.216 194.614 146.036 194.619C145.66 194.637 145.285 194.57 144.939 194.421C144.704 194.311 144.506 194.136 144.368 193.916C144.244 193.702 144.17 193.462 144.15 193.216C144.128 192.963 144.118 192.71 144.118 192.435V189.07H142.702V188.006H144.118V186.199H145.341V188.006H147.095V189.07Z" fill="white"/>
<path d="M148.682 185.699C148.684 185.489 148.758 185.287 148.892 185.126C149.026 184.966 149.211 184.856 149.417 184.818C149.622 184.779 149.835 184.812 150.019 184.913C150.202 185.013 150.345 185.175 150.422 185.369C150.5 185.563 150.508 185.778 150.444 185.978C150.381 186.177 150.25 186.348 150.075 186.462C149.899 186.576 149.689 186.625 149.481 186.601C149.273 186.577 149.08 186.481 148.935 186.33C148.853 186.248 148.788 186.149 148.744 186.04C148.701 185.932 148.68 185.815 148.682 185.699ZM148.968 188.009H150.199V194.454H148.976L148.968 188.009Z" fill="white"/>
<path d="M152.345 188.006H153.569V189H153.594C153.763 188.64 154.045 188.346 154.398 188.163C154.802 187.944 155.257 187.835 155.717 187.844C156.019 187.844 156.32 187.892 156.607 187.986C156.889 188.076 157.148 188.227 157.365 188.428C157.585 188.642 157.758 188.901 157.871 189.187C158.004 189.541 158.069 189.918 158.06 190.296V194.442H156.837V190.648C156.842 190.389 156.8 190.132 156.713 189.889C156.642 189.699 156.531 189.526 156.387 189.384C156.255 189.254 156.095 189.156 155.919 189.098C155.742 189.038 155.556 189.008 155.368 189.01C155.127 189.008 154.887 189.049 154.66 189.131C154.443 189.214 154.247 189.346 154.089 189.518C153.915 189.712 153.786 189.943 153.71 190.193C153.613 190.505 153.567 190.831 153.574 191.158V194.474H152.35L152.345 188.006Z" fill="white"/>
<path d="M159.804 191.231C159.797 190.78 159.883 190.332 160.056 189.915C160.23 189.513 160.477 189.148 160.784 188.838C161.098 188.529 161.468 188.282 161.874 188.112C162.505 187.846 163.201 187.773 163.873 187.902C164.546 188.032 165.165 188.357 165.653 188.838C165.961 189.148 166.208 189.513 166.38 189.915C166.559 190.33 166.65 190.779 166.646 191.231C166.648 191.678 166.562 192.12 166.391 192.532C166.221 192.945 165.97 193.319 165.653 193.633C165.339 193.94 164.97 194.184 164.566 194.353C163.703 194.708 162.736 194.708 161.874 194.353C161.468 194.184 161.099 193.94 160.784 193.633C160.467 193.319 160.216 192.945 160.046 192.532C159.876 192.12 159.79 191.678 159.794 191.231H159.804ZM161.108 191.231C161.105 191.539 161.156 191.846 161.257 192.136C161.349 192.398 161.492 192.639 161.679 192.844C161.862 193.044 162.084 193.204 162.331 193.314C162.899 193.541 163.533 193.541 164.101 193.314C164.352 193.209 164.579 193.051 164.765 192.852C164.953 192.647 165.097 192.406 165.187 192.144C165.386 191.558 165.386 190.923 165.187 190.337C165.097 190.074 164.954 189.833 164.765 189.629C164.579 189.43 164.352 189.272 164.101 189.166C163.533 188.94 162.899 188.94 162.331 189.166C162.079 189.273 161.852 189.43 161.664 189.629C161.477 189.834 161.333 190.074 161.242 190.337C161.144 190.625 161.096 190.927 161.1 191.231H161.108Z" fill="white"/>
<path d="M173.814 184.829V190.729C173.816 191.043 173.857 191.356 173.935 191.661C174.017 191.98 174.156 192.281 174.345 192.551C174.542 192.829 174.802 193.058 175.103 193.218C175.459 193.387 175.847 193.474 176.241 193.474C176.634 193.474 177.022 193.387 177.378 193.218C177.679 193.058 177.939 192.829 178.136 192.551C178.327 192.282 178.466 191.981 178.546 191.661C178.624 191.356 178.665 191.043 178.667 190.729V184.829H179.974V190.933C179.981 191.457 179.883 191.977 179.688 192.462C179.505 192.907 179.237 193.311 178.9 193.653C178.562 193.989 178.16 194.254 177.717 194.429C176.771 194.789 175.725 194.789 174.78 194.429C174.335 194.254 173.932 193.99 173.594 193.653C173.257 193.312 172.989 192.907 172.808 192.462C172.612 191.977 172.514 191.457 172.522 190.933V184.829H173.814Z" fill="white"/>
<path d="M193.15 186.909C192.879 186.556 192.524 186.275 192.117 186.093C191.712 185.906 191.271 185.808 190.825 185.807C190.317 185.8 189.813 185.904 189.349 186.113C188.919 186.31 188.535 186.595 188.222 186.95C187.902 187.314 187.655 187.736 187.494 188.193C187.321 188.685 187.235 189.202 187.241 189.723C187.24 190.214 187.326 190.702 187.494 191.163C187.648 191.605 187.887 192.012 188.199 192.361C188.514 192.71 188.899 192.988 189.329 193.178C189.807 193.385 190.324 193.487 190.845 193.476C191.351 193.486 191.852 193.37 192.301 193.137C192.722 192.904 193.084 192.578 193.36 192.184L194.462 193.014C194.345 193.165 194.217 193.308 194.081 193.443C193.864 193.657 193.622 193.844 193.36 193.999C193.02 194.204 192.657 194.369 192.278 194.49C191.806 194.637 191.313 194.708 190.818 194.699C190.107 194.711 189.403 194.562 188.758 194.265C187.582 193.72 186.667 192.736 186.207 191.525C185.985 190.95 185.871 190.339 185.868 189.723C185.861 189.019 185.985 188.32 186.235 187.663C186.465 187.056 186.814 186.502 187.261 186.032C187.709 185.569 188.249 185.205 188.846 184.963C189.495 184.704 190.188 184.576 190.886 184.584C191.527 184.585 192.162 184.709 192.756 184.951C193.35 185.183 193.869 185.572 194.258 186.078L193.15 186.909Z" fill="white"/>
<path d="M195.597 191.232C195.589 190.78 195.675 190.331 195.85 189.915C196.195 189.1 196.847 188.453 197.665 188.113C198.528 187.759 199.496 187.759 200.359 188.113C201.177 188.453 201.828 189.1 202.174 189.915C202.353 190.331 202.443 190.779 202.439 191.232C202.442 191.678 202.355 192.12 202.185 192.532C202.014 192.945 201.763 193.319 201.446 193.633C201.132 193.939 200.763 194.184 200.359 194.353C199.726 194.62 199.029 194.694 198.354 194.566C197.68 194.438 197.058 194.113 196.568 193.633C196.251 193.319 195.999 192.945 195.829 192.532C195.658 192.12 195.572 191.678 195.574 191.232H195.597ZM196.904 191.232C196.9 191.54 196.95 191.846 197.053 192.136C197.144 192.399 197.287 192.64 197.475 192.844C197.662 193.043 197.888 193.201 198.14 193.307C198.708 193.533 199.341 193.533 199.909 193.307C200.162 193.201 200.389 193.043 200.576 192.844C200.763 192.639 200.907 192.398 200.998 192.136C201.197 191.55 201.197 190.915 200.998 190.329C200.907 190.067 200.764 189.826 200.576 189.621C200.389 189.422 200.162 189.265 199.909 189.159C199.341 188.932 198.708 188.932 198.14 189.159C197.888 189.265 197.662 189.422 197.475 189.621C197.287 189.826 197.143 190.067 197.053 190.329C196.95 190.619 196.9 190.924 196.904 191.232Z" fill="white"/>
<path d="M204.289 184.174H205.512V194.454H204.289V184.174Z" fill="white"/>
<path d="M207.752 184.174H208.978V194.454H207.752V184.174Z" fill="white"/>
<path d="M212.049 191.681C212.048 191.945 212.111 192.206 212.233 192.44C212.354 192.667 212.518 192.868 212.716 193.031C212.923 193.198 213.157 193.327 213.408 193.413C213.671 193.502 213.947 193.547 214.225 193.547C214.573 193.559 214.918 193.472 215.218 193.294C215.514 193.105 215.776 192.868 215.994 192.594L216.917 193.302C216.243 194.181 215.291 194.621 214.063 194.621C213.591 194.629 213.122 194.543 212.683 194.368C212.286 194.207 211.929 193.964 211.634 193.653C211.344 193.343 211.12 192.977 210.974 192.579C210.818 192.15 210.74 191.696 210.744 191.239C210.74 190.78 210.826 190.325 210.997 189.899C211.156 189.5 211.391 189.136 211.69 188.828C211.988 188.519 212.347 188.275 212.744 188.112C213.166 187.939 213.619 187.853 214.076 187.86C214.575 187.844 215.071 187.946 215.524 188.158C215.901 188.344 216.233 188.611 216.497 188.939C216.75 189.263 216.937 189.633 217.048 190.028C217.16 190.429 217.217 190.843 217.218 191.259V191.694L212.049 191.681ZM215.916 190.703C215.913 190.445 215.869 190.189 215.787 189.945C215.715 189.725 215.597 189.524 215.441 189.354C215.28 189.18 215.082 189.045 214.862 188.959C214.604 188.858 214.329 188.809 214.053 188.815C213.77 188.813 213.49 188.87 213.231 188.984C212.767 189.192 212.398 189.566 212.198 190.033C212.105 190.241 212.056 190.466 212.054 190.693L215.916 190.703Z" fill="white"/>
<path d="M225.349 194.401C225.354 194.86 225.268 195.315 225.097 195.741C224.935 196.136 224.692 196.492 224.384 196.787C224.062 197.089 223.683 197.323 223.269 197.475C222.807 197.644 222.318 197.73 221.826 197.727C221.251 197.735 220.679 197.65 220.132 197.475C219.587 197.283 219.089 196.977 218.671 196.577L219.5 195.544C219.791 195.869 220.142 196.135 220.534 196.327C220.93 196.509 221.362 196.6 221.798 196.593C222.184 196.605 222.569 196.538 222.928 196.395C223.2 196.283 223.444 196.11 223.641 195.89C223.817 195.683 223.945 195.44 224.015 195.177C224.087 194.913 224.124 194.64 224.123 194.366V193.415H224.083C223.86 193.794 223.525 194.095 223.125 194.277C222.729 194.462 222.298 194.558 221.861 194.558C221.412 194.561 220.966 194.475 220.549 194.305C220.159 194.147 219.805 193.911 219.508 193.613C219.216 193.311 218.985 192.956 218.828 192.566C218.66 192.148 218.574 191.702 218.575 191.252C218.572 190.8 218.65 190.351 218.805 189.927C218.952 189.527 219.176 189.159 219.465 188.846C219.754 188.534 220.107 188.289 220.499 188.125C220.928 187.95 221.388 187.864 221.851 187.872C222.288 187.875 222.719 187.972 223.115 188.158C223.506 188.331 223.843 188.608 224.088 188.959H224.113V188.006H225.339L225.349 194.401ZM222.003 188.99C221.699 188.985 221.398 189.043 221.118 189.159C220.867 189.265 220.64 189.423 220.453 189.621C220.266 189.826 220.122 190.067 220.031 190.329C219.93 190.619 219.879 190.924 219.882 191.232C219.869 191.52 219.914 191.808 220.014 192.079C220.115 192.35 220.268 192.598 220.466 192.809C220.892 193.19 221.444 193.4 222.015 193.4C222.587 193.4 223.139 193.19 223.565 192.809C223.76 192.598 223.91 192.35 224.008 192.08C224.107 191.81 224.15 191.523 224.136 191.237C224.14 190.929 224.09 190.624 223.987 190.334C223.897 190.072 223.753 189.831 223.565 189.627C223.378 189.427 223.152 189.27 222.9 189.164C222.616 189.044 222.311 188.985 222.003 188.99Z" fill="white"/>
<path d="M228.326 191.681C228.325 191.945 228.387 192.205 228.508 192.44C228.629 192.667 228.793 192.868 228.991 193.031C229.199 193.198 229.434 193.327 229.686 193.413C229.948 193.502 230.223 193.547 230.5 193.547C230.849 193.559 231.193 193.472 231.494 193.294C231.789 193.105 232.051 192.868 232.27 192.594L233.195 193.302C232.521 194.181 231.569 194.621 230.338 194.621C229.866 194.629 229.397 194.543 228.958 194.368C228.563 194.207 228.206 193.963 227.912 193.653C227.622 193.343 227.398 192.977 227.252 192.579C227.095 192.15 227.016 191.696 227.02 191.239C227.015 190.78 227.101 190.325 227.272 189.899C227.432 189.501 227.667 189.137 227.965 188.828C228.264 188.52 228.623 188.277 229.019 188.112C229.442 187.94 229.895 187.854 230.351 187.86C230.851 187.844 231.347 187.946 231.799 188.158C232.177 188.344 232.509 188.611 232.772 188.939C233.026 189.262 233.213 189.633 233.324 190.028C233.436 190.429 233.493 190.843 233.493 191.259V191.694L228.326 191.681ZM232.189 190.703C232.183 190.445 232.139 190.19 232.057 189.945C231.985 189.725 231.867 189.524 231.711 189.354C231.551 189.18 231.354 189.045 231.135 188.959C230.876 188.858 230.601 188.809 230.323 188.815C230.041 188.813 229.761 188.871 229.502 188.984C229.265 189.09 229.05 189.24 228.87 189.427C228.701 189.604 228.565 189.809 228.468 190.033C228.377 190.242 228.329 190.466 228.326 190.693L232.189 190.703Z" fill="white"/>
<path d="M242.481 184.829H243.664L247.784 194.454H246.268L245.302 192.076H240.712L239.762 194.454H238.245L242.481 184.829ZM244.819 190.933L243.025 186.515H242.997L241.175 190.933H244.819Z" fill="white"/>
<path d="M253.534 189.723C253.33 189.503 253.089 189.322 252.822 189.187C252.543 189.057 252.239 188.994 251.932 189.002C251.629 188.994 251.329 189.058 251.055 189.187C250.81 189.306 250.596 189.478 250.428 189.692C250.258 189.911 250.129 190.16 250.049 190.425C249.961 190.705 249.918 190.997 249.92 191.29C249.918 191.579 249.968 191.867 250.069 192.139C250.163 192.397 250.305 192.635 250.489 192.839C250.672 193.04 250.895 193.2 251.143 193.309C251.414 193.426 251.706 193.484 252 193.479C252.305 193.488 252.607 193.424 252.882 193.294C253.142 193.162 253.373 192.979 253.562 192.758L254.434 193.628C254.133 193.968 253.752 194.229 253.325 194.386C252.895 194.54 252.442 194.618 251.985 194.616C251.518 194.62 251.055 194.534 250.62 194.363C250.221 194.209 249.857 193.975 249.551 193.676C249.248 193.376 249.012 193.015 248.858 192.617C248.687 192.181 248.602 191.717 248.606 191.249C248.602 190.78 248.688 190.314 248.858 189.877C249.01 189.476 249.244 189.112 249.545 188.807C249.845 188.503 250.207 188.264 250.605 188.107C251.044 187.933 251.513 187.848 251.985 187.855C252.448 187.852 252.907 187.938 253.337 188.107C253.766 188.269 254.15 188.529 254.459 188.866L253.534 189.723Z" fill="white"/>
<path d="M260.293 189.723C260.088 189.504 259.847 189.323 259.58 189.187C259.301 189.057 258.996 188.994 258.688 189.002C258.385 188.995 258.085 189.058 257.811 189.187C257.567 189.306 257.354 189.479 257.187 189.692C257.015 189.911 256.885 190.159 256.805 190.425C256.719 190.705 256.675 190.997 256.676 191.29C256.675 191.579 256.726 191.867 256.825 192.139C256.92 192.397 257.063 192.635 257.247 192.839C257.429 193.041 257.652 193.203 257.9 193.314C258.17 193.431 258.462 193.488 258.756 193.484C259.062 193.492 259.365 193.429 259.641 193.299C259.9 193.166 260.131 192.984 260.321 192.763L261.19 193.633C260.89 193.973 260.509 194.233 260.083 194.391C259.654 194.545 259.2 194.623 258.744 194.621C258.276 194.625 257.812 194.539 257.376 194.368C256.978 194.214 256.615 193.98 256.31 193.681C256.006 193.381 255.77 193.02 255.617 192.622C255.446 192.186 255.36 191.722 255.364 191.254C255.361 190.785 255.447 190.319 255.617 189.882C255.768 189.481 256.001 189.116 256.302 188.811C256.603 188.507 256.965 188.268 257.364 188.113C257.803 187.939 258.272 187.853 258.744 187.86C259.206 187.858 259.665 187.944 260.096 188.113C260.524 188.275 260.908 188.535 261.218 188.871L260.293 189.723Z" fill="white"/>
<path d="M263.367 191.681C263.365 191.945 263.428 192.205 263.549 192.44C263.669 192.667 263.833 192.868 264.032 193.031C264.239 193.198 264.475 193.327 264.727 193.413C264.99 193.502 265.266 193.547 265.543 193.547C265.891 193.559 266.235 193.471 266.534 193.294C266.831 193.106 267.093 192.87 267.31 192.594L268.235 193.302C267.561 194.181 266.609 194.621 265.379 194.621C264.907 194.629 264.437 194.543 263.999 194.368C263.603 194.207 263.247 193.963 262.952 193.653C262.663 193.343 262.438 192.977 262.293 192.579C262.136 192.15 262.058 191.696 262.063 191.239C262.058 190.78 262.144 190.325 262.315 189.899C262.475 189.501 262.71 189.137 263.008 188.828C263.307 188.52 263.666 188.277 264.062 188.112C264.485 187.94 264.938 187.854 265.394 187.86C265.894 187.844 266.39 187.946 266.842 188.158C267.22 188.344 267.552 188.611 267.816 188.939C268.068 189.263 268.255 189.633 268.364 190.028C268.477 190.429 268.534 190.843 268.533 191.259V191.694L263.367 191.681ZM267.227 190.703C267.221 190.446 267.177 190.19 267.098 189.945C267.024 189.726 266.905 189.524 266.749 189.354C266.589 189.18 266.392 189.045 266.173 188.959C265.915 188.859 265.64 188.81 265.364 188.815C265.08 188.813 264.799 188.87 264.54 188.984C264.303 189.091 264.089 189.241 263.908 189.427C263.739 189.604 263.603 189.809 263.506 190.033C263.415 190.242 263.367 190.466 263.364 190.693L267.227 190.703Z" fill="white"/>
<path d="M273.634 189.629C273.484 189.445 273.301 189.29 273.095 189.171C272.855 189.043 272.586 188.981 272.314 188.99C272.05 188.982 271.788 189.045 271.556 189.171C271.458 189.222 271.376 189.3 271.319 189.395C271.263 189.49 271.235 189.599 271.237 189.71C271.234 189.795 271.249 189.881 271.28 189.96C271.311 190.04 271.359 190.112 271.419 190.172C271.547 190.292 271.694 190.389 271.854 190.458C272.027 190.531 272.208 190.585 272.392 190.62L272.883 190.716C273.134 190.776 273.382 190.853 273.623 190.946C273.841 191.03 274.044 191.15 274.222 191.3C274.39 191.447 274.524 191.628 274.617 191.831C274.716 192.071 274.765 192.329 274.758 192.589C274.767 192.915 274.688 193.237 274.528 193.521C274.379 193.775 274.174 193.991 273.929 194.153C273.674 194.321 273.391 194.441 273.093 194.507C272.783 194.58 272.466 194.616 272.147 194.616C271.666 194.623 271.188 194.538 270.739 194.363C270.302 194.172 269.928 193.861 269.66 193.466L270.585 192.708C270.785 192.909 271.008 193.087 271.25 193.236C271.52 193.399 271.832 193.479 272.147 193.468C272.305 193.468 272.463 193.452 272.617 193.42C272.765 193.393 272.908 193.343 273.04 193.271C273.155 193.208 273.257 193.122 273.338 193.018C273.415 192.914 273.456 192.787 273.454 192.657C273.457 192.575 273.443 192.493 273.413 192.416C273.384 192.339 273.339 192.269 273.282 192.21C273.167 192.089 273.029 191.994 272.875 191.929C272.712 191.861 272.542 191.807 272.37 191.767C272.193 191.727 272.036 191.692 271.9 191.666C271.643 191.606 271.39 191.533 271.141 191.446C270.916 191.372 270.705 191.262 270.514 191.12C270.333 190.987 270.184 190.814 270.08 190.615C269.963 190.373 269.907 190.107 269.915 189.839C269.909 189.533 269.982 189.231 270.128 188.962C270.264 188.717 270.454 188.506 270.684 188.345C270.923 188.177 271.19 188.052 271.472 187.976C271.763 187.896 272.063 187.855 272.365 187.855C272.799 187.854 273.228 187.94 273.628 188.107C274.026 188.269 274.359 188.556 274.579 188.924L273.634 189.629Z" fill="white"/>
<path d="M279.865 189.629C279.715 189.445 279.532 189.29 279.326 189.171C279.086 189.043 278.817 188.981 278.545 188.99C278.281 188.982 278.019 189.045 277.787 189.171C277.689 189.222 277.607 189.3 277.55 189.395C277.494 189.49 277.466 189.599 277.468 189.71C277.465 189.795 277.48 189.881 277.511 189.96C277.542 190.04 277.59 190.112 277.65 190.172C277.781 190.293 277.931 190.39 278.095 190.458C278.269 190.531 278.449 190.585 278.634 190.62L279.124 190.716C279.376 190.777 279.623 190.853 279.865 190.946C280.082 191.03 280.285 191.15 280.464 191.3C280.631 191.446 280.765 191.627 280.855 191.831C280.957 192.07 281.006 192.329 281 192.589C281.009 192.915 280.928 193.238 280.767 193.521C280.62 193.775 280.415 193.992 280.17 194.153C279.915 194.321 279.632 194.441 279.334 194.507C279.024 194.58 278.707 194.616 278.389 194.616C277.907 194.624 277.429 194.538 276.981 194.363C276.543 194.172 276.169 193.861 275.901 193.466L276.826 192.708C277.026 192.909 277.249 193.087 277.491 193.236C277.762 193.399 278.073 193.479 278.389 193.468C278.546 193.468 278.704 193.452 278.859 193.42C279.006 193.393 279.149 193.343 279.281 193.271C279.397 193.208 279.498 193.122 279.579 193.018C279.656 192.914 279.697 192.787 279.695 192.657C279.698 192.575 279.684 192.493 279.655 192.416C279.625 192.339 279.58 192.269 279.523 192.21C279.408 192.089 279.27 191.994 279.116 191.929C278.953 191.861 278.784 191.807 278.611 191.767C278.434 191.727 278.277 191.692 278.141 191.666C277.884 191.606 277.631 191.533 277.383 191.446C277.158 191.372 276.946 191.262 276.756 191.12C276.574 190.987 276.426 190.814 276.321 190.615C276.204 190.373 276.148 190.107 276.157 189.839C276.15 189.533 276.223 189.231 276.369 188.962C276.505 188.717 276.696 188.506 276.925 188.345C277.165 188.177 277.431 188.052 277.714 187.976C278.004 187.896 278.304 187.855 278.606 187.855C279.036 187.855 279.461 187.941 279.857 188.107C280.254 188.269 280.588 188.556 280.807 188.924L279.865 189.629Z" fill="white"/>
</svg>
