<svg width="351" height="242" viewBox="0 0 351 242" fill="none" xmlns="http://www.w3.org/2000/svg">
<rect width="351" height="242" fill="#2E3770"/>
<rect width="351" height="242" fill="#2E3770"/>
<mask id="mask0_390_1426" style="mask-type:alpha" maskUnits="userSpaceOnUse" x="0" y="0" width="351" height="242">
<rect width="351" height="242" fill="white"/>
</mask>
<g mask="url(#mask0_390_1426)">
</g>
<path d="M106.229 96.9489H121.95V84C115.474 89.7452 109.936 94.1356 106.229 96.9489Z" fill="#A7A1C2"/>
<path d="M122.157 112.971V122.829C101.671 129.317 82.5975 149.328 78.1515 154.234H72.9522C84.1444 141.457 103.159 122.521 122.157 112.971ZM82.1805 154.234H87.5541C93.5496 149.108 105.806 140.269 122.157 137.181V129.439C112.651 132.125 96.2238 139.779 82.1805 154.234ZM122.157 154.234V143.017C111.768 144.629 100.475 148.259 91.7297 154.234H122.157ZM106.319 102.017V114.968C112.797 109.223 118.333 104.832 122.041 102.017H106.319ZM102.98 117.887H87.2837V133.374C92.718 127.563 98.0639 122.374 102.98 117.887ZM70 137.208V153.997C74.4561 147.999 79.1145 142.385 83.7653 137.208H70Z" fill="#A7A1C2"/>
<path d="M130.404 135.934C133.015 135.588 134.408 134.658 134.408 132.454V107.218C134.408 105.014 133.015 104.087 130.404 103.738V101.825H146.3V103.738C143.689 104.087 142.297 105.002 142.297 107.218V132.454C142.297 134.6 143.457 135.818 146.594 135.644L152.685 135.356C156.454 135.181 158.195 133.963 159.646 131.584L160.864 129.562H162.661L161.676 133.101C161.213 134.782 160.917 135.881 161.097 137.858H130.404V135.934Z" fill="white"/>
<path d="M166.259 122.533V107.218C166.259 105.014 164.866 104.087 162.255 103.738V101.825H178.151V103.738C175.54 104.087 174.147 105.002 174.147 107.218V121.719C174.147 130.819 177.802 134.655 183.373 134.655C188.709 134.655 193.061 131.175 193.061 122.068V107.218C193.061 105.014 191.436 104.087 188.825 103.738V101.825H200.543V103.738C197.934 104.087 196.309 105.002 196.309 107.218V123.115C196.309 132.57 191.32 138.429 181.631 138.429C172.757 138.429 166.259 133.614 166.259 122.533Z" fill="white"/>
<path d="M201.068 119.867C201.068 107.8 210.815 100.894 221.256 100.894C230.54 100.894 235.527 105.884 235.527 110.466C235.527 112.789 234.192 115.168 231.061 115.168C228.28 115.168 226.653 113.252 226.653 110.699C226.653 107.16 224.853 103.043 219.575 103.043C213.891 103.043 209.538 108.262 209.538 116.965C209.538 127.755 216.848 133.847 224.62 133.847C227.871 133.847 231.177 132.745 234.192 129.38L235.527 130.482C234.01 133.263 229.264 138.429 220.503 138.429C210.345 138.429 201.068 131.526 201.068 119.867Z" fill="white"/>
<path d="M276.315 135.993V137.85H260.823V135.935C264.303 135.414 264.303 133.789 263.201 131.352L262.274 129.33C261.516 128.112 260.535 127.763 259.084 127.763H249.522C247.955 127.763 246.969 128.112 246.213 129.504L245.577 131.021C244.358 133.801 245.751 135.432 249.464 135.952V137.868H236.573V135.952C239.821 135.315 241.039 133.574 242.387 130.558L252.469 107.565C253.629 104.954 253.92 102.924 253.92 101.822L258.27 101.415L270.754 129.148C272.715 133.498 273.355 135.368 276.315 135.993ZM259.782 123.81L254.726 112.557C254.322 111.571 254.031 111.571 253.624 112.557L248.643 123.994C248.352 124.806 248.931 125.154 249.512 125.154H258.968C259.605 125.144 260.186 124.752 259.779 123.81H259.782Z" fill="white"/>
<path d="M130.433 144.829H131.737V153.231H136.158V154.454H130.433V144.829Z" fill="white"/>
<path d="M137.409 148.797C137.754 148.481 138.161 148.238 138.604 148.085C139.041 147.929 139.501 147.848 139.964 147.847C140.376 147.838 140.787 147.897 141.18 148.024C141.489 148.122 141.774 148.284 142.017 148.499C142.229 148.688 142.394 148.923 142.499 149.187C142.604 149.443 142.658 149.718 142.656 149.995V153.281C142.656 153.506 142.656 153.716 142.671 153.906C142.686 154.095 142.691 154.277 142.712 154.449H141.622C141.597 154.123 141.582 153.797 141.582 153.471H141.557C141.325 153.851 140.99 154.158 140.591 154.356C140.183 154.533 139.741 154.619 139.297 154.608C139.007 154.61 138.72 154.568 138.443 154.485C138.182 154.41 137.939 154.286 137.727 154.118C137.524 153.955 137.359 153.748 137.244 153.514C137.123 153.252 137.062 152.966 137.068 152.677C137.055 152.309 137.151 151.944 137.346 151.631C137.538 151.343 137.799 151.107 138.104 150.943C138.457 150.756 138.837 150.627 139.231 150.562C139.687 150.484 140.149 150.446 140.611 150.448H141.509V150.175C141.508 150.007 141.476 149.841 141.415 149.685C141.35 149.521 141.253 149.371 141.129 149.245C140.994 149.108 140.831 149.001 140.652 148.931C140.435 148.848 140.204 148.809 139.972 148.815C139.764 148.812 139.557 148.835 139.355 148.883C139.189 148.924 139.027 148.981 138.872 149.053C138.732 149.117 138.6 149.198 138.478 149.293L138.137 149.546L137.409 148.797ZM140.861 151.355C140.564 151.355 140.267 151.371 139.972 151.403C139.689 151.429 139.41 151.49 139.143 151.585C138.912 151.663 138.703 151.794 138.531 151.967C138.451 152.05 138.389 152.148 138.348 152.255C138.306 152.362 138.287 152.476 138.291 152.591C138.278 152.746 138.305 152.902 138.371 153.043C138.437 153.184 138.538 153.305 138.665 153.395C138.971 153.575 139.322 153.663 139.676 153.648C139.971 153.656 140.264 153.597 140.533 153.476C140.754 153.375 140.95 153.224 141.104 153.036C141.248 152.857 141.354 152.651 141.418 152.43C141.479 152.215 141.511 151.993 141.511 151.77V151.363L140.861 151.355Z" fill="white"/>
<path d="M148.095 149.07H146.341V151.995C146.341 152.174 146.341 152.354 146.356 152.531C146.36 152.694 146.395 152.855 146.457 153.006C146.512 153.144 146.606 153.262 146.728 153.347C146.89 153.443 147.078 153.488 147.266 153.476C147.416 153.476 147.566 153.462 147.713 153.436C147.862 153.411 148.005 153.36 148.136 153.286V154.401C147.96 154.493 147.769 154.55 147.572 154.57C147.395 154.598 147.216 154.614 147.036 154.619C146.66 154.637 146.285 154.57 145.939 154.421C145.704 154.311 145.506 154.136 145.368 153.916C145.244 153.702 145.17 153.462 145.15 153.216C145.128 152.963 145.118 152.71 145.118 152.435V149.07H143.702V148.006H145.118V146.199H146.341V148.006H148.095V149.07Z" fill="white"/>
<path d="M149.683 145.699C149.684 145.489 149.758 145.287 149.892 145.126C150.026 144.966 150.212 144.856 150.417 144.818C150.623 144.779 150.836 144.812 151.019 144.913C151.202 145.013 151.345 145.175 151.423 145.369C151.501 145.563 151.508 145.778 151.445 145.978C151.382 146.177 151.251 146.348 151.075 146.462C150.899 146.576 150.69 146.625 150.482 146.601C150.274 146.577 150.081 146.481 149.936 146.33C149.853 146.248 149.788 146.149 149.745 146.04C149.701 145.932 149.68 145.815 149.683 145.699ZM149.968 148.009H151.199V154.454H149.976L149.968 148.009Z" fill="white"/>
<path d="M153.346 148.006H154.569V149H154.594C154.764 148.64 155.046 148.346 155.398 148.163C155.803 147.944 156.258 147.835 156.718 147.844C157.02 147.844 157.32 147.892 157.607 147.986C157.889 148.076 158.148 148.227 158.366 148.428C158.586 148.642 158.758 148.901 158.871 149.187C159.005 149.541 159.069 149.918 159.061 150.296V154.442H157.837V150.648C157.843 150.389 157.801 150.132 157.713 149.889C157.643 149.699 157.532 149.526 157.387 149.384C157.255 149.254 157.095 149.156 156.92 149.098C156.742 149.038 156.556 149.008 156.369 149.01C156.127 149.008 155.888 149.049 155.661 149.131C155.443 149.214 155.248 149.346 155.09 149.518C154.915 149.712 154.786 149.943 154.711 150.193C154.614 150.505 154.567 150.831 154.574 151.158V154.474H153.351L153.346 148.006Z" fill="white"/>
<path d="M160.804 151.231C160.798 150.78 160.884 150.332 161.057 149.915C161.23 149.513 161.477 149.148 161.785 148.838C162.098 148.529 162.468 148.282 162.874 148.112C163.505 147.846 164.201 147.773 164.874 147.902C165.546 148.032 166.165 148.357 166.653 148.838C166.961 149.148 167.208 149.513 167.381 149.915C167.56 150.33 167.65 150.779 167.646 151.231C167.649 151.678 167.562 152.12 167.392 152.532C167.221 152.945 166.97 153.319 166.653 153.633C166.34 153.94 165.971 154.184 165.566 154.353C164.704 154.708 163.737 154.708 162.874 154.353C162.469 154.184 162.099 153.94 161.785 153.633C161.468 153.319 161.216 152.945 161.046 152.532C160.876 152.12 160.79 151.678 160.794 151.231H160.804ZM162.108 151.231C162.106 151.539 162.156 151.846 162.258 152.136C162.349 152.398 162.493 152.639 162.68 152.844C162.862 153.044 163.084 153.204 163.332 153.314C163.9 153.541 164.533 153.541 165.101 153.314C165.353 153.209 165.579 153.051 165.766 152.852C165.954 152.647 166.097 152.406 166.188 152.144C166.387 151.558 166.387 150.923 166.188 150.337C166.098 150.074 165.954 149.833 165.766 149.629C165.579 149.43 165.353 149.272 165.101 149.166C164.533 148.94 163.9 148.94 163.332 149.166C163.08 149.273 162.852 149.43 162.664 149.629C162.477 149.834 162.333 150.074 162.242 150.337C162.144 150.625 162.097 150.927 162.101 151.231H162.108Z" fill="white"/>
<path d="M174.815 144.829V150.729C174.816 151.043 174.857 151.356 174.936 151.661C175.018 151.98 175.157 152.281 175.345 152.551C175.543 152.829 175.802 153.058 176.104 153.218C176.459 153.387 176.848 153.474 177.241 153.474C177.634 153.474 178.023 153.387 178.378 153.218C178.68 153.058 178.939 152.829 179.137 152.551C179.327 152.282 179.466 151.981 179.546 151.661C179.625 151.356 179.666 151.043 179.668 150.729V144.829H180.974V150.933C180.981 151.457 180.884 151.977 180.689 152.462C180.505 152.907 180.238 153.311 179.9 153.653C179.563 153.989 179.16 154.254 178.717 154.429C177.771 154.789 176.726 154.789 175.78 154.429C175.336 154.254 174.932 153.99 174.595 153.653C174.257 153.312 173.99 152.907 173.809 152.462C173.612 151.977 173.515 151.457 173.523 150.933V144.829H174.815Z" fill="white"/>
<path d="M194.15 146.909C193.879 146.556 193.524 146.275 193.117 146.093C192.712 145.906 192.271 145.808 191.825 145.807C191.317 145.8 190.813 145.904 190.349 146.113C189.919 146.31 189.535 146.595 189.222 146.95C188.902 147.314 188.655 147.736 188.494 148.193C188.321 148.685 188.235 149.202 188.241 149.723C188.24 150.214 188.326 150.702 188.494 151.163C188.648 151.605 188.887 152.012 189.199 152.361C189.514 152.71 189.899 152.988 190.329 153.178C190.807 153.385 191.324 153.487 191.845 153.476C192.351 153.486 192.852 153.37 193.301 153.137C193.722 152.904 194.084 152.578 194.36 152.184L195.462 153.014C195.345 153.165 195.217 153.308 195.081 153.443C194.864 153.657 194.622 153.844 194.36 153.999C194.02 154.204 193.657 154.369 193.278 154.49C192.806 154.637 192.313 154.708 191.818 154.699C191.107 154.711 190.403 154.562 189.758 154.265C188.582 153.72 187.667 152.736 187.207 151.525C186.985 150.95 186.871 150.339 186.868 149.723C186.861 149.019 186.985 148.32 187.235 147.663C187.465 147.056 187.814 146.502 188.261 146.032C188.709 145.569 189.249 145.205 189.846 144.963C190.495 144.704 191.188 144.576 191.886 144.584C192.527 144.585 193.162 144.709 193.756 144.951C194.35 145.183 194.869 145.572 195.258 146.078L194.15 146.909Z" fill="white"/>
<path d="M196.598 151.232C196.59 150.78 196.676 150.331 196.851 149.915C197.196 149.1 197.848 148.453 198.666 148.113C199.529 147.759 200.497 147.759 201.36 148.113C202.178 148.453 202.829 149.1 203.175 149.915C203.353 150.331 203.444 150.779 203.44 151.232C203.443 151.678 203.356 152.12 203.186 152.532C203.015 152.945 202.764 153.319 202.447 153.633C202.133 153.939 201.764 154.184 201.36 154.353C200.727 154.62 200.03 154.694 199.355 154.566C198.681 154.438 198.059 154.113 197.569 153.633C197.252 153.319 197 152.945 196.83 152.532C196.659 152.12 196.573 151.678 196.575 151.232H196.598ZM197.905 151.232C197.901 151.54 197.951 151.846 198.054 152.136C198.145 152.399 198.288 152.64 198.476 152.844C198.663 153.043 198.889 153.201 199.141 153.307C199.709 153.533 200.342 153.533 200.91 153.307C201.163 153.201 201.39 153.043 201.577 152.844C201.764 152.639 201.908 152.398 201.999 152.136C202.198 151.55 202.198 150.915 201.999 150.329C201.908 150.067 201.765 149.826 201.577 149.621C201.39 149.422 201.163 149.265 200.91 149.159C200.342 148.932 199.709 148.932 199.141 149.159C198.889 149.265 198.663 149.422 198.476 149.621C198.288 149.826 198.144 150.067 198.054 150.329C197.951 150.619 197.901 150.924 197.905 151.232Z" fill="white"/>
<path d="M205.29 144.174H206.513V154.454H205.29V144.174Z" fill="white"/>
<path d="M208.753 144.174H209.979V154.454H208.753V144.174Z" fill="white"/>
<path d="M213.05 151.681C213.049 151.945 213.112 152.206 213.234 152.44C213.355 152.667 213.519 152.868 213.717 153.031C213.924 153.198 214.158 153.327 214.409 153.413C214.672 153.502 214.948 153.547 215.226 153.547C215.574 153.559 215.919 153.472 216.219 153.294C216.515 153.105 216.777 152.868 216.995 152.594L217.918 153.302C217.244 154.181 216.292 154.621 215.064 154.621C214.592 154.629 214.123 154.543 213.684 154.368C213.287 154.207 212.93 153.964 212.635 153.653C212.345 153.343 212.121 152.977 211.975 152.579C211.819 152.15 211.741 151.696 211.745 151.239C211.741 150.78 211.827 150.325 211.998 149.899C212.157 149.5 212.392 149.136 212.691 148.828C212.989 148.519 213.348 148.275 213.745 148.112C214.167 147.939 214.62 147.853 215.077 147.86C215.576 147.844 216.072 147.946 216.525 148.158C216.902 148.344 217.234 148.611 217.498 148.939C217.751 149.263 217.938 149.633 218.049 150.028C218.161 150.429 218.218 150.843 218.218 151.259V151.694L213.05 151.681ZM216.917 150.703C216.914 150.445 216.87 150.189 216.788 149.945C216.716 149.725 216.598 149.524 216.442 149.354C216.281 149.18 216.083 149.045 215.863 148.959C215.605 148.858 215.33 148.809 215.054 148.815C214.771 148.813 214.491 148.87 214.232 148.984C213.768 149.192 213.399 149.566 213.199 150.033C213.106 150.241 213.057 150.466 213.055 150.693L216.917 150.703Z" fill="white"/>
<path d="M226.35 154.401C226.355 154.86 226.269 155.315 226.097 155.741C225.936 156.136 225.693 156.492 225.385 156.787C225.063 157.089 224.684 157.323 224.27 157.475C223.808 157.644 223.319 157.73 222.827 157.727C222.252 157.735 221.68 157.65 221.133 157.475C220.588 157.283 220.09 156.977 219.672 156.577L220.501 155.544C220.792 155.869 221.143 156.135 221.535 156.327C221.931 156.509 222.363 156.6 222.799 156.593C223.185 156.605 223.57 156.538 223.929 156.395C224.201 156.283 224.445 156.11 224.642 155.89C224.818 155.683 224.946 155.44 225.016 155.177C225.088 154.913 225.125 154.64 225.124 154.366V153.415H225.084C224.861 153.794 224.526 154.095 224.126 154.277C223.73 154.462 223.299 154.558 222.862 154.558C222.412 154.561 221.967 154.475 221.55 154.305C221.16 154.147 220.806 153.911 220.509 153.613C220.217 153.311 219.986 152.956 219.829 152.566C219.661 152.148 219.575 151.702 219.576 151.252C219.573 150.8 219.651 150.351 219.806 149.927C219.953 149.527 220.177 149.159 220.466 148.846C220.755 148.534 221.108 148.289 221.5 148.125C221.929 147.95 222.389 147.864 222.852 147.872C223.289 147.875 223.72 147.972 224.116 148.158C224.507 148.331 224.844 148.608 225.089 148.959H225.114V148.006H226.34L226.35 154.401ZM223.004 148.99C222.7 148.985 222.399 149.043 222.119 149.159C221.868 149.265 221.641 149.423 221.454 149.621C221.267 149.826 221.123 150.067 221.032 150.329C220.931 150.619 220.88 150.924 220.883 151.232C220.87 151.52 220.915 151.808 221.015 152.079C221.116 152.35 221.269 152.598 221.467 152.809C221.893 153.19 222.445 153.4 223.016 153.4C223.588 153.4 224.14 153.19 224.566 152.809C224.761 152.598 224.911 152.35 225.009 152.08C225.108 151.81 225.151 151.523 225.137 151.237C225.141 150.929 225.09 150.624 224.988 150.334C224.898 150.072 224.754 149.831 224.566 149.627C224.379 149.427 224.153 149.27 223.901 149.164C223.617 149.044 223.312 148.985 223.004 148.99Z" fill="white"/>
<path d="M229.327 151.681C229.326 151.945 229.388 152.205 229.509 152.44C229.63 152.667 229.794 152.868 229.992 153.031C230.2 153.198 230.435 153.327 230.687 153.413C230.949 153.502 231.224 153.547 231.501 153.547C231.85 153.559 232.194 153.472 232.495 153.294C232.79 153.105 233.052 152.868 233.27 152.594L234.196 153.302C233.522 154.181 232.569 154.621 231.339 154.621C230.867 154.629 230.398 154.543 229.959 154.368C229.564 154.207 229.207 153.963 228.913 153.653C228.623 153.343 228.399 152.977 228.253 152.579C228.096 152.15 228.017 151.696 228.021 151.239C228.016 150.78 228.102 150.325 228.273 149.899C228.433 149.501 228.668 149.137 228.966 148.828C229.265 148.52 229.624 148.277 230.02 148.112C230.443 147.94 230.896 147.854 231.352 147.86C231.852 147.844 232.348 147.946 232.8 148.158C233.178 148.344 233.51 148.611 233.773 148.939C234.027 149.262 234.214 149.633 234.324 150.028C234.437 150.429 234.494 150.843 234.494 151.259V151.694L229.327 151.681ZM233.19 150.703C233.184 150.445 233.14 150.19 233.058 149.945C232.986 149.725 232.868 149.524 232.712 149.354C232.552 149.18 232.355 149.045 232.136 148.959C231.877 148.858 231.602 148.809 231.324 148.815C231.042 148.813 230.762 148.871 230.503 148.984C230.266 149.09 230.051 149.24 229.871 149.427C229.702 149.604 229.566 149.809 229.469 150.033C229.378 150.242 229.33 150.466 229.327 150.693L233.19 150.703Z" fill="white"/>
<path d="M243.481 144.829H244.664L248.784 154.454H247.268L246.302 152.076H241.712L240.762 154.454H239.245L243.481 144.829ZM245.819 150.933L244.025 146.515H243.997L242.175 150.933H245.819Z" fill="white"/>
<path d="M254.535 149.723C254.331 149.503 254.09 149.322 253.823 149.187C253.544 149.057 253.24 148.994 252.933 149.002C252.63 148.994 252.33 149.058 252.056 149.187C251.811 149.306 251.597 149.478 251.429 149.692C251.259 149.911 251.13 150.16 251.05 150.425C250.962 150.705 250.919 150.997 250.921 151.29C250.919 151.579 250.969 151.867 251.07 152.139C251.164 152.397 251.306 152.635 251.49 152.839C251.673 153.04 251.896 153.2 252.144 153.309C252.415 153.426 252.707 153.484 253.001 153.479C253.306 153.488 253.608 153.424 253.883 153.294C254.143 153.162 254.374 152.979 254.563 152.758L255.435 153.628C255.134 153.968 254.752 154.229 254.326 154.386C253.896 154.54 253.442 154.618 252.986 154.616C252.519 154.62 252.056 154.534 251.621 154.363C251.222 154.209 250.858 153.975 250.552 153.676C250.249 153.376 250.013 153.015 249.859 152.617C249.688 152.181 249.603 151.717 249.607 151.249C249.603 150.78 249.689 150.314 249.859 149.877C250.011 149.476 250.245 149.112 250.546 148.807C250.846 148.503 251.208 148.264 251.606 148.107C252.045 147.933 252.514 147.848 252.986 147.855C253.449 147.852 253.908 147.938 254.338 148.107C254.766 148.269 255.151 148.529 255.46 148.866L254.535 149.723Z" fill="white"/>
<path d="M261.294 149.723C261.089 149.504 260.848 149.323 260.581 149.187C260.302 149.057 259.997 148.994 259.689 149.002C259.386 148.995 259.086 149.058 258.812 149.187C258.568 149.306 258.355 149.479 258.188 149.692C258.016 149.911 257.886 150.159 257.806 150.425C257.72 150.705 257.676 150.997 257.677 151.29C257.676 151.579 257.727 151.867 257.826 152.139C257.921 152.397 258.064 152.635 258.248 152.839C258.43 153.041 258.653 153.203 258.901 153.314C259.171 153.431 259.463 153.488 259.757 153.484C260.063 153.492 260.366 153.429 260.642 153.299C260.901 153.166 261.132 152.984 261.322 152.763L262.191 153.633C261.891 153.973 261.51 154.233 261.084 154.391C260.655 154.545 260.201 154.623 259.745 154.621C259.277 154.625 258.813 154.539 258.377 154.368C257.979 154.214 257.616 153.98 257.311 153.681C257.007 153.381 256.771 153.02 256.618 152.622C256.447 152.186 256.361 151.722 256.365 151.254C256.362 150.785 256.448 150.319 256.618 149.882C256.769 149.481 257.002 149.116 257.303 148.811C257.604 148.507 257.966 148.268 258.365 148.113C258.804 147.939 259.273 147.853 259.745 147.86C260.207 147.858 260.666 147.944 261.097 148.113C261.525 148.275 261.909 148.535 262.219 148.871L261.294 149.723Z" fill="white"/>
<path d="M264.367 151.681C264.365 151.945 264.428 152.205 264.549 152.44C264.669 152.667 264.833 152.868 265.032 153.031C265.239 153.198 265.475 153.327 265.727 153.413C265.99 153.502 266.266 153.547 266.543 153.547C266.891 153.559 267.235 153.471 267.534 153.294C267.831 153.106 268.093 152.87 268.31 152.594L269.235 153.302C268.561 154.181 267.609 154.621 266.379 154.621C265.907 154.629 265.437 154.543 264.999 154.368C264.603 154.207 264.247 153.963 263.952 153.653C263.663 153.343 263.438 152.977 263.293 152.579C263.136 152.15 263.058 151.696 263.063 151.239C263.058 150.78 263.144 150.325 263.315 149.899C263.475 149.501 263.71 149.137 264.008 148.828C264.307 148.52 264.666 148.277 265.062 148.112C265.485 147.94 265.938 147.854 266.394 147.86C266.894 147.844 267.39 147.946 267.842 148.158C268.22 148.344 268.552 148.611 268.816 148.939C269.068 149.263 269.255 149.633 269.364 150.028C269.477 150.429 269.534 150.843 269.533 151.259V151.694L264.367 151.681ZM268.227 150.703C268.221 150.446 268.177 150.19 268.098 149.945C268.024 149.726 267.905 149.524 267.749 149.354C267.589 149.18 267.392 149.045 267.173 148.959C266.915 148.859 266.64 148.81 266.364 148.815C266.08 148.813 265.799 148.87 265.54 148.984C265.303 149.091 265.089 149.241 264.908 149.427C264.739 149.604 264.603 149.809 264.506 150.033C264.415 150.242 264.367 150.466 264.364 150.693L268.227 150.703Z" fill="white"/>
<path d="M274.635 149.629C274.485 149.445 274.302 149.29 274.096 149.171C273.856 149.043 273.587 148.981 273.315 148.99C273.051 148.982 272.789 149.045 272.557 149.171C272.459 149.222 272.377 149.3 272.32 149.395C272.264 149.49 272.236 149.599 272.238 149.71C272.235 149.795 272.25 149.881 272.281 149.96C272.312 150.04 272.36 150.112 272.42 150.172C272.548 150.292 272.695 150.389 272.855 150.458C273.028 150.531 273.209 150.585 273.393 150.62L273.884 150.716C274.135 150.776 274.383 150.853 274.624 150.946C274.842 151.03 275.045 151.15 275.223 151.3C275.391 151.447 275.525 151.628 275.618 151.831C275.717 152.071 275.766 152.329 275.759 152.589C275.768 152.915 275.689 153.237 275.529 153.521C275.38 153.775 275.175 153.991 274.93 154.153C274.675 154.321 274.392 154.441 274.094 154.507C273.784 154.58 273.467 154.616 273.148 154.616C272.667 154.623 272.189 154.538 271.74 154.363C271.303 154.172 270.929 153.861 270.661 153.466L271.586 152.708C271.786 152.909 272.009 153.087 272.251 153.236C272.521 153.399 272.833 153.479 273.148 153.468C273.306 153.468 273.464 153.452 273.618 153.42C273.766 153.393 273.909 153.343 274.041 153.271C274.156 153.208 274.258 153.122 274.339 153.018C274.416 152.914 274.457 152.787 274.455 152.657C274.458 152.575 274.444 152.493 274.414 152.416C274.385 152.339 274.34 152.269 274.283 152.21C274.168 152.089 274.03 151.994 273.876 151.929C273.713 151.861 273.543 151.807 273.371 151.767C273.194 151.727 273.037 151.692 272.901 151.666C272.644 151.606 272.391 151.533 272.142 151.446C271.917 151.372 271.706 151.262 271.515 151.12C271.334 150.987 271.185 150.814 271.081 150.615C270.964 150.373 270.908 150.107 270.916 149.839C270.909 149.533 270.983 149.231 271.129 148.962C271.265 148.717 271.455 148.506 271.685 148.345C271.924 148.177 272.191 148.052 272.473 147.976C272.764 147.896 273.064 147.855 273.366 147.855C273.8 147.854 274.229 147.94 274.629 148.107C275.026 148.269 275.36 148.556 275.58 148.924L274.635 149.629Z" fill="white"/>
<path d="M280.865 149.629C280.715 149.445 280.532 149.29 280.326 149.171C280.086 149.043 279.817 148.981 279.545 148.99C279.281 148.982 279.019 149.045 278.787 149.171C278.689 149.222 278.607 149.3 278.55 149.395C278.494 149.49 278.466 149.599 278.468 149.71C278.465 149.795 278.48 149.881 278.511 149.96C278.542 150.04 278.59 150.112 278.65 150.172C278.781 150.293 278.931 150.39 279.095 150.458C279.269 150.531 279.449 150.585 279.634 150.62L280.124 150.716C280.376 150.777 280.623 150.853 280.865 150.946C281.082 151.03 281.285 151.15 281.464 151.3C281.631 151.446 281.765 151.627 281.855 151.831C281.957 152.07 282.006 152.329 282 152.589C282.009 152.915 281.928 153.238 281.767 153.521C281.62 153.775 281.415 153.992 281.17 154.153C280.915 154.321 280.632 154.441 280.334 154.507C280.024 154.58 279.707 154.616 279.389 154.616C278.907 154.624 278.429 154.538 277.981 154.363C277.543 154.172 277.169 153.861 276.901 153.466L277.826 152.708C278.026 152.909 278.249 153.087 278.491 153.236C278.762 153.399 279.073 153.479 279.389 153.468C279.546 153.468 279.704 153.452 279.859 153.42C280.006 153.393 280.149 153.343 280.281 153.271C280.397 153.208 280.498 153.122 280.579 153.018C280.656 152.914 280.697 152.787 280.695 152.657C280.698 152.575 280.684 152.493 280.655 152.416C280.625 152.339 280.58 152.269 280.523 152.21C280.408 152.089 280.27 151.994 280.116 151.929C279.953 151.861 279.784 151.807 279.611 151.767C279.434 151.727 279.277 151.692 279.141 151.666C278.884 151.606 278.631 151.533 278.383 151.446C278.158 151.372 277.946 151.262 277.756 151.12C277.574 150.987 277.426 150.814 277.321 150.615C277.204 150.373 277.148 150.107 277.157 149.839C277.15 149.533 277.223 149.231 277.369 148.962C277.505 148.717 277.696 148.506 277.925 148.345C278.165 148.177 278.431 148.052 278.714 147.976C279.004 147.896 279.304 147.855 279.606 147.855C280.036 147.855 280.461 147.941 280.857 148.107C281.254 148.269 281.588 148.556 281.807 148.924L280.865 149.629Z" fill="white"/>
</svg>
