<svg width="438" height="388" viewBox="0 0 438 388" fill="none" xmlns="http://www.w3.org/2000/svg">
<path fill-rule="evenodd" clip-rule="evenodd" d="M58.5357 141.277H164.589C165.277 95.4813 165.966 33.158 164.933 34.8797C165.966 29.3704 170.786 25.2385 176.296 25.2385H192.823C184.215 15.5973 172.852 6.64481 161.49 2.51288C151.16 -1.27473 140.83 -1.27473 132.91 5.95615C124.178 14.0168 127.567 27.4008 131.414 42.5934C135.454 58.5522 140 76.5065 131.533 92.3824C97.4447 156.083 29.6122 117.174 0 80.3309C2.75462 123.716 20.6597 154.361 46.4842 173.644V152.984C46.4842 146.442 51.9935 141.277 58.5357 141.277ZM164.244 251.117V356.826C164.244 363.368 169.753 368.877 176.295 368.877H202.423L202.295 368.732L202.208 368.634L202.12 368.533H262.033C268.575 368.533 274.084 363.368 274.084 356.826V353.038C273.568 352.694 273.137 352.436 272.707 352.177C272.277 351.919 271.846 351.661 271.33 351.317C272.019 350.972 273.051 350.972 274.084 352.005V251.117H378.071C384.614 251.117 389.779 245.608 389.779 239.066V227.703C407.684 243.542 422.834 269.022 427.31 277.631C436.951 296.569 439.017 314.474 435.23 335.133C431.213 304.005 412.555 292.724 402.66 286.741C402.376 286.57 402.099 286.402 401.83 286.239C382.548 274.532 352.591 280.041 334.342 290.371C318.389 299.627 312.124 315.755 305.818 331.989C301.099 344.137 296.356 356.346 287.513 365.778C267.198 387.127 232.421 398.145 208.662 375.42C208.351 375.108 208.018 374.775 207.665 374.421C169.768 386.571 131.35 370.211 129.811 337.888C129.467 325.148 120.514 312.408 106.053 305.177C96.5968 300.449 85.8947 299.252 75.1442 298.051C66.3208 297.064 57.4648 296.074 49.2385 293.125C30.3005 286.239 25.1356 270.744 26.8572 252.839C28.5788 235.622 37.187 215.996 46.8282 200.157V239.066C46.8282 245.952 51.9931 251.117 58.5353 251.117H164.244ZM63.0119 349.595C58.1914 336.51 65.0779 321.704 78.1624 316.884C91.2468 312.063 106.053 318.95 110.873 332.034C115.694 345.118 108.808 359.925 95.7231 364.745C82.6386 369.566 67.8325 362.679 63.0119 349.595ZM274.084 61.7373V37.2901C274.084 30.7479 268.575 25.5829 262.033 25.5829H225.19C248.26 11.4655 281.659 8.36656 300.942 25.2386C312.987 35.6503 313.533 52.2351 314.062 68.3189V68.3192C314.426 79.3626 314.782 90.1699 318.847 98.5804C326.204 113.893 341.831 116.686 358.298 119.63C370.344 121.784 382.84 124.018 392.877 131.291C405.273 140.244 398.731 170.889 394.943 186.04C394.254 188.794 392.533 193.959 389.778 199.813V153.328C389.778 146.442 384.613 141.277 378.071 141.277H274.084V103.057V61.7373ZM359.134 102.023C373.94 101.334 385.302 88.5944 384.614 73.444C383.925 58.6379 371.185 47.2751 356.035 47.9637C341.229 48.6524 329.866 61.3925 330.554 76.5429C331.587 91.349 344.328 102.712 359.134 102.023ZM360.166 304.144C346.393 300.012 331.931 307.587 327.8 321.016C323.323 334.789 330.898 349.251 344.672 353.382C358.1 357.514 372.562 349.939 377.038 336.51C381.17 322.737 373.595 308.276 360.166 304.144ZM112.595 80.3308C114.661 94.4482 104.676 107.533 90.5582 109.599C76.4408 111.665 63.3563 102.023 61.2904 87.5616C59.2244 73.4442 69.2099 60.3598 83.3273 58.2938C97.4448 56.2278 110.529 66.2133 112.595 80.3308ZM238.274 326.181C238.619 326.525 238.963 326.869 239.652 327.214C239.48 326.869 239.307 326.611 239.135 326.353C238.963 326.095 238.791 325.836 238.619 325.492C235.176 321.016 174.574 192.926 291.301 177.431C275.079 173.955 259.971 176.845 246.781 179.368C232.533 182.094 220.522 184.391 211.761 177.775C207.285 174.332 196.267 160.903 210.728 108.221C200.743 118.207 134.288 214.963 238.274 326.181ZM231.388 169.512C239.996 169.512 246.883 162.625 246.883 154.017C246.883 145.409 239.996 138.522 231.388 138.522C222.78 138.522 215.893 145.409 215.893 154.017C215.893 162.625 222.78 169.512 231.388 169.512Z" fill="#03304B" fill-opacity="0.05"/>
</svg>
