<svg width="1451" height="133" viewBox="0 0 1451 133" fill="none" xmlns="http://www.w3.org/2000/svg">
<path fill-rule="evenodd" clip-rule="evenodd" d="M1450.08 133C1450.08 133 1372 87 1195 87C1018 87 918 108 720 100C522 92 386 48 229 48C72.0003 48 0.314954 85.4006 0.314954 85.4006L0.425036 4.94691L1450.08 3.94683" fill="url(#paint0_linear_1008_20651)" fill-opacity="0.65"/>
<path fill-rule="evenodd" clip-rule="evenodd" d="M-9.30354e-06 45.6052C-9.30354e-06 45.6052 112 19.0001 286.414 30.2791C460.827 41.5581 611.058 87.8663 733.169 87.8663C855.28 87.8662 974 76.9998 1156 64.9997C1370.53 50.8544 1450 98.9997 1450 98.9997L1450 4L-1.65528e-05 4.00025" fill="#F3F5F1"/>
<defs>
<linearGradient id="paint0_linear_1008_20651" x1="1167.23" y1="53.038" x2="81.4399" y2="73.4203" gradientUnits="userSpaceOnUse">
<stop offset="0.0834239" stop-color="#BAD37E"/>
<stop offset="1" stop-color="#046BAC"/>
</linearGradient>
</defs>
</svg>
