<svg width="343" height="462" viewBox="0 0 343 462" fill="none" xmlns="http://www.w3.org/2000/svg">
<path d="M238.001 85.5148H341.284V0.447266C298.742 38.1905 262.36 67.0334 238.001 85.5148Z" fill="#293164"/>
<path d="M342.645 190.773V255.532C208.061 298.157 82.7594 429.619 53.5512 461.85H19.3946C92.9217 377.911 217.841 253.507 342.645 190.773ZM80.0196 461.85H115.322C154.709 428.175 235.227 370.107 342.645 349.816V298.955C280.193 316.606 172.277 366.886 80.0196 461.85ZM342.645 461.85V388.157C274.398 398.751 200.207 422.595 142.753 461.85H342.645ZM238.598 118.807V203.891C281.156 166.148 317.521 137.305 341.881 118.807H238.598ZM216.662 223.07H113.545V324.808C149.246 286.634 184.366 252.543 216.662 223.07ZM0 349.998V460.289C29.2746 420.885 59.8777 384.005 90.4309 349.998H0Z" fill="#293164"/>
</svg>
