<svg width="317" height="429" viewBox="0 0 317 429" fill="none" xmlns="http://www.w3.org/2000/svg">
<path d="M220.908 79.824H316.738V0.895508C277.266 35.9149 243.51 62.6763 220.908 79.824Z" fill="#293164"/>
<path d="M318 177.485V237.572C193.129 277.121 76.8699 399.095 49.7696 429H18.078C86.2988 351.119 202.203 235.692 318 177.485ZM74.3278 429H107.082C143.627 397.755 218.334 343.878 318 325.051V277.86C260.055 294.237 159.927 340.889 74.3278 429ZM318 429V360.625C254.679 370.454 185.841 392.578 132.534 429H318ZM221.462 110.713V189.657C260.949 154.637 294.69 127.876 317.291 110.713H221.462ZM201.109 207.451H105.434V301.848C138.558 266.428 171.143 234.798 201.109 207.451ZM0.0830078 325.22V427.552C27.245 390.991 55.6395 356.773 83.9878 325.22H0.0830078Z" fill="#293164"/>
</svg>
