<svg width="231" height="81" viewBox="0 0 231 81" fill="none" xmlns="http://www.w3.org/2000/svg">
<path d="M39.3478 14.064H56.4233V0C49.39 6.23998 43.3751 11.0085 39.3478 14.064Z" fill="#BE5427"/>
<path d="M56.6485 31.4658V42.1724C34.3981 49.2195 13.6824 70.9537 8.85347 76.2823H3.20647C15.3625 62.405 36.0151 41.8374 56.6485 31.4658ZM13.2294 76.2823H19.0659C25.5776 70.7149 38.8894 61.1147 56.6485 57.76V49.3512C46.3236 52.2694 28.4821 60.5821 13.2294 76.2823ZM56.6485 76.2823V64.0988C45.3655 65.8503 33.0996 69.7925 23.601 76.2823H56.6485ZM39.4467 19.5679V33.6346C46.4828 27.3946 52.4949 22.6261 56.5222 19.5679H39.4467ZM35.8202 36.8054H18.7721V53.6256C24.6744 47.3142 30.4807 41.6782 35.8202 36.8054ZM0 57.7902V76.0242C4.8399 69.5097 9.89942 63.4125 14.9507 57.7902H0Z" fill="url(#paint0_linear_302_2190)"/>
<path d="M65.6062 56.4067C68.4421 56.0306 69.9547 55.0203 69.9547 52.6265V25.2178C69.9547 22.8239 68.4421 21.8164 65.6062 21.4375V19.3594H82.8712V21.4375C80.0353 21.8164 78.5227 22.8102 78.5227 25.2178V52.6265C78.5227 54.9572 79.7827 56.2804 83.1896 56.091L89.8057 55.778C93.8989 55.5886 95.7904 54.2654 97.3661 51.6821L98.6894 49.4859H100.641L99.5706 53.3293C99.0682 55.1549 98.747 56.3491 98.9419 58.4958H65.6062V56.4067Z" fill="#272361"/>
<path d="M104.548 41.8513V25.2178C104.548 22.8239 103.035 21.8164 100.199 21.4375V19.3594H117.464V21.4375C114.628 21.8164 113.116 22.8102 113.116 25.2178V40.9673C113.116 50.8503 117.085 55.0176 123.136 55.0176C128.931 55.0176 133.658 51.2374 133.658 41.3462V25.2178C133.658 22.8239 131.893 21.8164 129.057 21.4375V19.3594H141.784V21.4375C138.951 21.8164 137.186 22.8102 137.186 25.2178V42.4827C137.186 52.7528 131.767 59.1163 121.244 59.1163C111.606 59.1163 104.548 53.8866 104.548 41.8513Z" fill="#272361"/>
<path d="M142.356 38.9556C142.356 25.8497 152.942 18.3496 164.282 18.3496C174.366 18.3496 179.782 23.7688 179.782 28.7459C179.782 31.2688 178.333 33.8521 174.931 33.8521C171.911 33.8521 170.143 31.7712 170.143 28.9985C170.143 25.1551 168.189 20.6831 162.457 20.6831C156.283 20.6831 151.555 26.3521 151.555 35.804C151.555 47.5235 159.495 54.1396 167.936 54.1396C171.467 54.1396 175.057 52.9427 178.333 49.2887L179.782 50.4857C178.135 53.5055 172.979 59.1168 163.464 59.1168C152.431 59.1168 142.356 51.6195 142.356 38.9556Z" fill="#272361"/>
<path d="M224.082 56.4702V58.488H207.256V56.4071C211.037 55.8416 211.037 54.0764 209.84 51.4299L208.832 49.2337C208.009 47.9105 206.943 47.5317 205.368 47.5317H194.982C193.28 47.5317 192.21 47.9105 191.389 49.4231L190.697 51.0703C189.374 54.0901 190.886 55.8608 194.919 56.4263V58.5072H180.918V56.4263C184.446 55.7345 185.769 53.843 187.232 50.5679L198.183 25.5943C199.443 22.7584 199.759 20.554 199.759 19.357L204.484 18.915L218.043 49.0361C220.173 53.7607 220.867 55.7922 224.082 56.4702ZM206.125 43.2381L200.635 31.0162C200.196 29.9455 199.88 29.9455 199.438 31.0162L194.027 43.4385C193.711 44.3197 194.34 44.6986 194.971 44.6986H205.241C205.933 44.6876 206.565 44.2621 206.123 43.2381H206.125Z" fill="#272361"/>
<path d="M65.6367 66.0674H67.0533V75.1926H71.8547V76.5213H65.6367V66.0674Z" fill="#BE5527"/>
<path d="M73.2138 70.3775C73.5891 70.0334 74.0311 69.7699 74.5123 69.6033C74.9863 69.434 75.4858 69.3467 75.9892 69.3453C76.437 69.335 76.8834 69.4 77.3097 69.5375C77.6452 69.6443 77.9547 69.8201 78.2184 70.0536C78.4486 70.2585 78.6281 70.5141 78.7427 70.8003C78.8567 71.079 78.9146 71.3776 78.9129 71.6788V75.2476C78.9129 75.4919 78.9129 75.7198 78.9294 75.9257C78.9459 76.1316 78.9514 76.3292 78.9733 76.5159H77.7901C77.7627 76.1618 77.7462 75.8076 77.7462 75.4535H77.7187C77.4672 75.8667 77.1036 76.1999 76.67 76.4143C76.227 76.6068 75.7474 76.7005 75.2645 76.6889C74.9502 76.6908 74.6374 76.6455 74.3366 76.5544C74.054 76.4739 73.79 76.3386 73.5597 76.1563C73.3386 75.9789 73.1596 75.7549 73.0353 75.5002C72.9029 75.2159 72.8372 74.9051 72.8431 74.5915C72.8292 74.1911 72.9343 73.7956 73.1451 73.455C73.3546 73.1425 73.6373 72.8862 73.9687 72.7082C74.3518 72.5049 74.7653 72.3649 75.1931 72.2937C75.6882 72.2092 76.1897 72.1679 76.692 72.1702H77.6666V71.8737C77.6659 71.6914 77.6314 71.5108 77.565 71.3411C77.4943 71.1629 77.3888 71.0005 77.2548 70.8634C77.108 70.7144 76.9311 70.5983 76.7359 70.523C76.5004 70.4329 76.2495 70.39 75.9974 70.3967C75.7719 70.3934 75.5469 70.4183 75.3276 70.4709C75.1474 70.5154 74.9718 70.577 74.8033 70.6548C74.651 70.7251 74.5073 70.8126 74.375 70.9156L74.0044 71.1901L73.2138 70.3775ZM76.9638 73.1557C76.641 73.1557 76.3184 73.1731 75.9974 73.2079C75.6902 73.2357 75.3877 73.3021 75.097 73.4055C74.8464 73.4903 74.6189 73.6322 74.4327 73.8201C74.3459 73.9098 74.2782 74.0161 74.2334 74.1326C74.1885 74.2491 74.1676 74.3734 74.1718 74.4982C74.1576 74.6665 74.1876 74.8356 74.2589 74.9887C74.3302 75.1418 74.4402 75.2737 74.5782 75.3711C74.9102 75.5663 75.2914 75.6616 75.6763 75.6457C75.9966 75.6545 76.3148 75.5907 76.6069 75.459C76.8474 75.349 77.0596 75.1857 77.2273 74.9813C77.3833 74.7864 77.499 74.5624 77.5677 74.3225C77.6347 74.0895 77.6689 73.8483 77.6693 73.6059V73.164L76.9638 73.1557Z" fill="#BE5527"/>
<path d="M84.8203 70.6743H82.9151V73.8506C82.9151 74.0455 82.9151 74.2404 82.9316 74.4325C82.9361 74.6099 82.9733 74.7849 83.0414 74.9487C83.101 75.0983 83.2031 75.2271 83.3352 75.3193C83.5116 75.4236 83.7153 75.4723 83.9199 75.4593C84.0828 75.4591 84.2455 75.4444 84.4058 75.4154C84.5669 75.3885 84.7221 75.3337 84.8643 75.2534V76.464C84.6737 76.5635 84.4659 76.6259 84.2521 76.648C84.0594 76.6782 83.865 76.6956 83.6701 76.7001C83.2618 76.7203 82.8543 76.6471 82.4786 76.486C82.2233 76.3664 82.0079 76.1758 81.8582 75.937C81.7238 75.7042 81.6432 75.4444 81.6221 75.1765C81.5974 74.902 81.5864 74.6275 81.5864 74.3282V70.6743H80.0491V69.5185H81.5864V67.5557H82.9151V69.5185H84.8203V70.6743Z" fill="#BE5527"/>
<path d="M86.5443 67.0121C86.5457 66.7849 86.626 66.5652 86.7715 66.3906C86.917 66.2161 87.1187 66.0975 87.342 66.0552C87.5652 66.0129 87.7963 66.0495 87.9955 66.1588C88.1948 66.2681 88.3499 66.4432 88.4343 66.6542C88.5187 66.8652 88.5271 67.0989 88.4582 67.3155C88.3893 67.532 88.2472 67.7179 88.0564 67.8412C87.8655 67.9646 87.6377 68.0178 87.412 67.9918C87.1862 67.9657 86.9765 67.862 86.8188 67.6984C86.7293 67.6084 86.6588 67.5012 86.6116 67.3832C86.5644 67.2653 86.5415 67.1391 86.5443 67.0121ZM86.8545 69.5213H88.1914V76.5217H86.8627L86.8545 69.5213Z" fill="#BE5527"/>
<path d="M90.5226 69.5182H91.8513V70.5971H91.8787C92.0625 70.2068 92.3692 69.8876 92.7517 69.6884C93.1914 69.4508 93.6852 69.3316 94.1848 69.3425C94.513 69.342 94.8392 69.3939 95.1511 69.4962C95.4575 69.5941 95.7386 69.7581 95.9747 69.9766C96.2141 70.2091 96.4013 70.4898 96.5237 70.8002C96.669 71.185 96.7389 71.5942 96.7296 72.0054V76.5076H95.4009V72.387C95.4068 72.1065 95.3612 71.8274 95.2664 71.5634C95.1899 71.3567 95.069 71.1693 94.9123 71.0144C94.7688 70.8736 94.5951 70.7675 94.4044 70.7041C94.2116 70.6391 94.0094 70.6067 93.8059 70.608C93.5439 70.6058 93.2836 70.6504 93.0372 70.7398C92.8006 70.8297 92.5882 70.9735 92.4168 71.1598C92.2275 71.3711 92.0869 71.6213 92.005 71.8928C91.8996 72.2322 91.8496 72.5863 91.8568 72.9415V76.5433H90.5281L90.5226 69.5182Z" fill="#BE5527"/>
<path d="M98.6239 73.0215C98.6169 72.5311 98.7103 72.0443 98.8984 71.5913C99.0868 71.1556 99.3549 70.7589 99.6891 70.4218C100.029 70.0859 100.431 69.8184 100.872 69.6339C101.558 69.345 102.313 69.2656 103.044 69.4059C103.774 69.5461 104.447 69.8996 104.976 70.4218C105.311 70.7582 105.58 71.155 105.767 71.5913C105.961 72.0429 106.059 72.53 106.055 73.0215C106.058 73.5062 105.964 73.9865 105.779 74.4344C105.594 74.8822 105.321 75.2885 104.976 75.6295C104.636 75.9629 104.236 76.2284 103.796 76.4119C102.859 76.7971 101.809 76.7971 100.872 76.4119C100.432 76.2284 100.03 75.9629 99.6891 75.6295C99.3444 75.2889 99.0716 74.8825 98.8868 74.4346C98.7019 73.9866 98.6088 73.5061 98.6129 73.0215H98.6239ZM100.04 73.0215C100.038 73.356 100.092 73.6885 100.202 74.0043C100.302 74.2888 100.458 74.5503 100.661 74.773C100.859 74.9901 101.101 75.1639 101.369 75.2836C101.986 75.5296 102.674 75.5296 103.291 75.2836C103.564 75.1689 103.81 74.9977 104.013 74.7813C104.217 74.5592 104.373 74.2976 104.471 74.0126C104.687 73.3761 104.687 72.6862 104.471 72.0497C104.374 71.7644 104.217 71.5027 104.013 71.2811C103.81 71.0646 103.564 70.8934 103.291 70.7787C102.674 70.5327 101.986 70.5327 101.369 70.7787C101.095 70.894 100.849 71.0651 100.644 71.2811C100.441 71.5034 100.285 71.7649 100.186 72.0497C100.08 72.3625 100.028 72.6912 100.032 73.0215H100.04Z" fill="#BE5527"/>
<path d="M113.841 66.0674V72.4748C113.843 72.8166 113.887 73.1569 113.973 73.4878C114.062 73.834 114.212 74.1614 114.417 74.4542C114.632 74.7564 114.914 75.0046 115.241 75.1789C115.627 75.362 116.049 75.4571 116.476 75.4571C116.904 75.4571 117.326 75.362 117.712 75.1789C118.039 75.0046 118.321 74.7564 118.535 74.4542C118.742 74.1626 118.893 73.8348 118.98 73.4878C119.066 73.1569 119.11 72.8166 119.112 72.4748V66.0674H120.531V72.6972C120.538 73.2659 120.433 73.8304 120.221 74.3581C120.022 74.8405 119.731 75.2797 119.364 75.6511C118.998 76.0166 118.561 76.3034 118.08 76.4939C117.052 76.8855 115.917 76.8855 114.89 76.4939C114.407 76.3041 113.969 76.0173 113.602 75.6511C113.235 75.2803 112.945 74.8409 112.748 74.3581C112.535 73.8308 112.429 73.266 112.438 72.6972V66.0674H113.841Z" fill="#BE5527"/>
<path d="M134.842 68.3268C134.547 67.9428 134.161 67.6381 133.719 67.4401C133.279 67.2366 132.801 67.1308 132.316 67.1299C131.764 67.1214 131.216 67.2348 130.713 67.4621C130.246 67.6759 129.829 67.9855 129.489 68.3708C129.141 68.7666 128.873 69.225 128.698 69.7214C128.51 70.2548 128.417 70.8169 128.423 71.3823C128.422 71.916 128.515 72.4457 128.698 72.9471C128.865 73.427 129.126 73.8692 129.464 74.2484C129.806 74.6272 130.224 74.9294 130.691 75.1351C131.21 75.3601 131.772 75.4706 132.338 75.459C132.888 75.4703 133.431 75.3438 133.919 75.0912C134.376 74.8379 134.77 74.484 135.07 74.0562L136.267 74.9567C136.139 75.1211 136 75.277 135.852 75.4234C135.617 75.656 135.354 75.8588 135.07 76.0273C134.7 76.2502 134.306 76.4289 133.895 76.5599C133.381 76.7198 132.846 76.7967 132.308 76.7878C131.536 76.8 130.772 76.6386 130.071 76.3156C128.794 75.7238 127.799 74.6556 127.301 73.3397C127.06 72.7151 126.935 72.0518 126.933 71.3823C126.924 70.6182 127.059 69.8593 127.331 69.1449C127.581 68.4864 127.96 67.8844 128.445 67.3742C128.932 66.8713 129.518 66.4758 130.167 66.213C130.871 65.932 131.624 65.792 132.382 65.8012C133.079 65.8021 133.768 65.9373 134.414 66.1993C135.058 66.4514 135.622 66.8748 136.044 67.4237L134.842 68.3268Z" fill="#BE5527"/>
<path d="M137.499 73.0217C137.491 72.5311 137.584 72.0441 137.774 71.5914C138.149 70.7061 138.857 70.0033 139.745 69.634C140.682 69.2496 141.733 69.2496 142.671 69.634C143.559 70.0033 144.267 70.7061 144.642 71.5914C144.836 72.043 144.934 72.5301 144.93 73.0217C144.933 73.5063 144.839 73.9866 144.654 74.4345C144.469 74.8823 144.196 75.2887 143.852 75.6297C143.511 75.9624 143.11 76.2278 142.671 76.4121C141.984 76.7021 141.227 76.7825 140.494 76.6433C139.761 76.5041 139.086 76.1515 138.553 75.6297C138.209 75.2887 137.936 74.8823 137.751 74.4345C137.565 73.9866 137.471 73.5063 137.474 73.0217H137.499ZM138.918 73.0217C138.914 73.3563 138.969 73.689 139.08 74.0045C139.179 74.2895 139.335 74.5511 139.539 74.7732C139.741 74.9896 139.987 75.1608 140.261 75.2755C140.878 75.5215 141.565 75.5215 142.182 75.2755C142.457 75.1608 142.704 74.9896 142.907 74.7732C143.11 74.5504 143.266 74.289 143.366 74.0045C143.582 73.368 143.582 72.6781 143.366 72.0416C143.267 71.7568 143.111 71.4953 142.907 71.2729C142.704 71.0565 142.457 70.8853 142.182 70.7706C141.565 70.5246 140.878 70.5246 140.261 70.7706C139.987 70.8853 139.741 71.0565 139.539 71.2729C139.334 71.4946 139.178 71.7563 139.08 72.0416C138.969 72.3562 138.914 72.688 138.918 73.0217Z" fill="#BE5527"/>
<path d="M146.94 65.3564H148.269V76.5214H146.94V65.3564Z" fill="#BE5527"/>
<path d="M150.701 65.3564H152.032V76.5214H150.701V65.3564Z" fill="#BE5527"/>
<path d="M155.368 73.5104C155.368 73.7971 155.436 74.0797 155.569 74.334C155.7 74.5805 155.878 74.7988 156.093 74.9764C156.318 75.1575 156.572 75.2978 156.845 75.391C157.131 75.4874 157.43 75.5366 157.732 75.5365C158.11 75.55 158.485 75.4548 158.811 75.2619C159.132 75.0566 159.417 74.7997 159.654 74.5015L160.656 75.2702C159.924 76.2255 158.89 76.7032 157.556 76.7032C157.043 76.7123 156.534 76.6189 156.057 76.4287C155.627 76.254 155.238 75.9891 154.918 75.6518C154.603 75.3148 154.36 74.918 154.202 74.485C154.031 74.019 153.947 73.5261 153.952 73.03C153.947 72.5317 154.04 72.0374 154.226 71.575C154.399 71.1416 154.654 70.7462 154.978 70.411C155.302 70.0757 155.692 69.8112 156.123 69.6341C156.582 69.4462 157.074 69.3528 157.57 69.3596C158.113 69.3426 158.651 69.4536 159.143 69.6836C159.553 69.886 159.914 70.1755 160.2 70.5318C160.474 70.8837 160.678 71.2856 160.798 71.715C160.92 72.1504 160.982 72.6001 160.982 73.052V73.5242L155.368 73.5104ZM159.569 72.448C159.565 72.1679 159.518 71.89 159.429 71.6245C159.351 71.3858 159.222 71.1668 159.052 70.9821C158.878 70.7932 158.663 70.6467 158.424 70.5538C158.144 70.444 157.846 70.3909 157.545 70.3973C157.238 70.3945 156.934 70.4572 156.653 70.5812C156.149 70.8064 155.748 71.2131 155.53 71.7205C155.429 71.946 155.376 72.19 155.374 72.437L159.569 72.448Z" fill="#BE5527"/>
<path d="M169.813 76.4642C169.819 76.9625 169.725 77.457 169.539 77.9192C169.363 78.3479 169.099 78.7351 168.765 79.0557C168.415 79.3833 168.004 79.6373 167.554 79.8024C167.052 79.9867 166.521 80.0797 165.987 80.0769C165.363 80.0856 164.741 79.9929 164.147 79.8024C163.555 79.5937 163.014 79.2615 162.561 78.8279L163.461 77.705C163.777 78.0585 164.158 78.3475 164.584 78.5561C165.014 78.7539 165.483 78.8524 165.956 78.8443C166.376 78.858 166.794 78.7851 167.184 78.6302C167.479 78.5076 167.744 78.3199 167.958 78.0811C168.149 77.8566 168.288 77.5921 168.364 77.307C168.443 77.0198 168.482 76.7235 168.482 76.4258V75.3935H168.438C168.196 75.8053 167.833 76.1322 167.398 76.3297C166.968 76.5303 166.499 76.6344 166.025 76.6344C165.537 76.6381 165.052 76.5448 164.6 76.3599C164.176 76.1878 163.792 75.932 163.469 75.6077C163.152 75.2802 162.901 74.8942 162.731 74.4711C162.548 74.0173 162.455 73.5327 162.456 73.0436C162.452 72.5529 162.537 72.0656 162.706 71.6051C162.865 71.1702 163.109 70.771 163.423 70.4301C163.737 70.0921 164.119 69.8253 164.545 69.6477C165.011 69.4574 165.511 69.364 166.014 69.3732C166.489 69.3759 166.957 69.4817 167.387 69.6834C167.812 69.8716 168.177 70.1725 168.444 70.5536H168.471V69.5187H169.803L169.813 76.4642ZM166.179 70.5866C165.849 70.5815 165.522 70.6441 165.218 70.7705C164.945 70.8859 164.699 71.057 164.496 71.2729C164.292 71.4952 164.136 71.7568 164.037 72.0416C163.927 72.3565 163.873 72.688 163.875 73.0216C163.861 73.335 163.91 73.6481 164.019 73.9423C164.128 74.2365 164.295 74.5059 164.51 74.7347C164.973 75.1483 165.572 75.377 166.192 75.377C166.813 75.377 167.412 75.1483 167.875 74.7347C168.087 74.5055 168.251 74.2364 168.357 73.9433C168.464 73.6501 168.511 73.3387 168.496 73.0271C168.5 72.6934 168.445 72.3616 168.334 72.0471C168.236 71.7618 168.08 71.5 167.875 71.2784C167.673 71.062 167.427 70.8908 167.153 70.776C166.845 70.6456 166.513 70.5811 166.179 70.5866Z" fill="#BE5527"/>
<path d="M173.047 73.5104C173.046 73.7969 173.114 74.0795 173.245 74.334C173.376 74.5805 173.554 74.7988 173.769 74.9764C173.995 75.1577 174.25 75.298 174.524 75.391C174.809 75.4875 175.108 75.5367 175.408 75.5365C175.787 75.55 176.161 75.4548 176.487 75.2619C176.808 75.0566 177.093 74.7997 177.33 74.5015L178.335 75.2702C177.603 76.2255 176.569 76.7032 175.233 76.7032C174.72 76.7123 174.21 76.6189 173.734 76.4287C173.304 76.2533 172.917 75.9884 172.597 75.6518C172.283 75.3148 172.039 74.918 171.881 74.485C171.709 74.0192 171.624 73.5263 171.628 73.03C171.623 72.5317 171.717 72.0374 171.903 71.575C172.076 71.142 172.331 70.7467 172.655 70.411C172.98 70.0769 173.369 69.8126 173.8 69.6341C174.259 69.4464 174.751 69.3531 175.246 69.3596C175.789 69.3426 176.328 69.4536 176.819 69.6836C177.229 69.886 177.59 70.1755 177.876 70.5318C178.152 70.883 178.355 71.2851 178.475 71.715C178.597 72.1501 178.659 72.6 178.659 73.052V73.5242L173.047 73.5104ZM177.242 72.448C177.236 72.1679 177.188 71.8902 177.099 71.6245C177.022 71.3858 176.893 71.1668 176.723 70.9821C176.55 70.7939 176.336 70.6475 176.097 70.5538C175.817 70.4443 175.517 70.3911 175.216 70.3973C174.909 70.3949 174.605 70.4575 174.324 70.5812C174.066 70.6959 173.833 70.859 173.638 71.0617C173.455 71.2539 173.307 71.477 173.201 71.7205C173.102 71.9466 173.05 72.1903 173.047 72.437L177.242 72.448Z" fill="#BE5527"/>
<path d="M188.421 66.0674H189.706L194.18 76.5213H192.533L191.485 73.9381H186.499L185.467 76.5213H183.82L188.421 66.0674ZM190.96 72.6972L189.011 67.8985H188.981L187.002 72.6972H190.96Z" fill="#BE5527"/>
<path d="M200.426 71.3827C200.205 71.1444 199.942 70.9473 199.652 70.8007C199.35 70.66 199.019 70.5914 198.686 70.6003C198.357 70.5919 198.03 70.6605 197.733 70.8007C197.467 70.9298 197.235 71.1175 197.052 71.3498C196.867 71.5878 196.728 71.8576 196.64 72.1459C196.545 72.4497 196.498 72.7664 196.5 73.0848C196.498 73.3995 196.553 73.7121 196.662 74.0072C196.764 74.2875 196.919 74.5456 197.118 74.7676C197.317 74.9856 197.559 75.1596 197.829 75.2782C198.123 75.4052 198.44 75.4679 198.76 75.4622C199.09 75.4721 199.419 75.4034 199.718 75.2618C200 75.1178 200.25 74.9201 200.456 74.6798L201.403 75.6241C201.076 75.9941 200.662 76.2771 200.198 76.4477C199.731 76.615 199.239 76.6995 198.743 76.6975C198.236 76.7016 197.733 76.6084 197.261 76.423C196.827 76.2553 196.432 76.0012 196.1 75.6763C195.77 75.3505 195.514 74.9584 195.347 74.526C195.162 74.0531 195.068 73.5489 195.073 73.0408C195.069 72.5311 195.162 72.0252 195.347 71.5502C195.512 71.1153 195.766 70.7197 196.093 70.3888C196.419 70.0578 196.812 69.7989 197.244 69.6285C197.721 69.4395 198.23 69.3463 198.743 69.354C199.246 69.3515 199.744 69.4447 200.212 69.6285C200.677 69.8038 201.095 70.0859 201.431 70.4521L200.426 71.3827Z" fill="#BE5527"/>
<path d="M207.767 71.3826C207.544 71.1452 207.283 70.9483 206.993 70.8006C206.689 70.6599 206.358 70.5913 206.024 70.6002C205.695 70.5921 205.369 70.6607 205.071 70.8006C204.806 70.9297 204.574 71.1175 204.393 71.3496C204.206 71.5868 204.066 71.8568 203.978 72.1458C203.885 72.4499 203.838 72.7664 203.838 73.0846C203.837 73.3993 203.892 73.7116 204 74.0071C204.103 74.2875 204.259 74.5457 204.459 74.7675C204.657 74.9868 204.898 75.1626 205.167 75.2836C205.461 75.41 205.778 75.4727 206.098 75.4675C206.429 75.477 206.758 75.4084 207.059 75.2671C207.34 75.1222 207.59 74.9246 207.797 74.6851L208.741 75.6295C208.415 75.9989 208.002 76.2818 207.539 76.4531C207.072 76.6201 206.58 76.7047 206.084 76.7029C205.576 76.7069 205.072 76.6138 204.599 76.4284C204.166 76.2606 203.772 76.0065 203.44 75.6817C203.111 75.3559 202.855 74.9638 202.688 74.5314C202.502 74.0585 202.409 73.5543 202.414 73.0462C202.41 72.5364 202.503 72.0306 202.688 71.5555C202.852 71.1201 203.105 70.7239 203.432 70.3929C203.759 70.0618 204.152 69.8032 204.585 69.6339C205.062 69.4449 205.571 69.3516 206.084 69.3593C206.587 69.3572 207.085 69.4503 207.553 69.6339C208.017 69.8106 208.434 70.0925 208.772 70.4574L207.767 71.3826Z" fill="#BE5527"/>
<path d="M211.105 73.5104C211.103 73.7969 211.171 74.0795 211.303 74.334C211.434 74.5805 211.612 74.7988 211.827 74.9764C212.052 75.1577 212.308 75.298 212.582 75.391C212.868 75.4874 213.167 75.5366 213.469 75.5365C213.846 75.5497 214.22 75.4544 214.545 75.2619C214.867 75.0581 215.152 74.801 215.388 74.5015L216.392 75.2702C215.66 76.2255 214.626 76.7032 213.29 76.7032C212.777 76.7123 212.268 76.6189 211.791 76.4287C211.362 76.2533 210.974 75.9884 210.655 75.6518C210.34 75.3148 210.096 74.918 209.938 74.485C209.768 74.019 209.683 73.5261 209.688 73.03C209.684 72.5317 209.777 72.0374 209.963 71.575C210.136 71.142 210.391 70.7467 210.715 70.411C211.04 70.0769 211.429 69.8126 211.86 69.6341C212.319 69.4464 212.811 69.3531 213.307 69.3596C213.849 69.3426 214.388 69.4536 214.88 69.6836C215.29 69.886 215.65 70.1755 215.937 70.5318C216.211 70.8833 216.413 71.2853 216.532 71.715C216.655 72.1501 216.717 72.6 216.716 73.052V73.5242L211.105 73.5104ZM215.297 72.448C215.291 72.1682 215.244 71.8907 215.157 71.6245C215.077 71.3862 214.948 71.1673 214.778 70.9821C214.605 70.7939 214.391 70.6475 214.152 70.5538C213.872 70.4446 213.574 70.3914 213.274 70.3973C212.966 70.3946 212.661 70.4572 212.379 70.5812C212.122 70.6966 211.889 70.8596 211.692 71.0617C211.509 71.2539 211.362 71.477 211.256 71.7205C211.157 71.9466 211.105 72.1903 211.102 72.437L215.297 72.448Z" fill="#BE5527"/>
<path d="M222.256 71.2807C222.094 71.0805 221.895 70.9121 221.671 70.7838C221.411 70.6447 221.118 70.5766 220.823 70.5862C220.536 70.5783 220.252 70.6465 220 70.7838C219.893 70.8389 219.804 70.923 219.743 71.0265C219.681 71.1299 219.651 71.2484 219.654 71.3685C219.65 71.4614 219.666 71.554 219.7 71.6404C219.734 71.7269 219.786 71.8054 219.851 71.8709C219.99 72.0008 220.149 72.1057 220.324 72.1811C220.512 72.2602 220.708 72.3191 220.908 72.3568L221.441 72.4612C221.714 72.5268 221.983 72.6102 222.245 72.711C222.482 72.8024 222.702 72.9323 222.896 73.0953C223.078 73.2552 223.223 73.4517 223.324 73.6718C223.432 73.9326 223.485 74.2131 223.478 74.4954C223.487 74.8494 223.401 75.1994 223.228 75.5084C223.066 75.7836 222.844 76.0182 222.577 76.1947C222.3 76.377 221.992 76.5073 221.669 76.5791C221.332 76.6579 220.988 76.6975 220.642 76.6971C220.119 76.7052 219.6 76.612 219.113 76.4226C218.638 76.2149 218.232 75.877 217.941 75.448L218.945 74.6244C219.162 74.8437 219.405 75.0363 219.667 75.1982C219.961 75.3749 220.3 75.4626 220.642 75.4507C220.814 75.4508 220.985 75.4333 221.153 75.3986C221.313 75.3693 221.468 75.3146 221.611 75.2366C221.737 75.1684 221.847 75.075 221.935 74.9621C222.019 74.8484 222.063 74.7106 222.061 74.5695C222.064 74.4802 222.049 74.3911 222.017 74.3077C221.985 74.2242 221.937 74.1481 221.875 74.0836C221.75 73.953 221.599 73.8493 221.433 73.7789C221.255 73.705 221.071 73.6463 220.884 73.6032C220.691 73.5593 220.521 73.5208 220.373 73.4934C220.094 73.4285 219.819 73.3488 219.549 73.2545C219.305 73.1734 219.075 73.0539 218.869 72.9004C218.672 72.7555 218.51 72.5678 218.396 72.3514C218.27 72.0889 218.209 71.7998 218.218 71.5086C218.21 71.1763 218.29 70.8479 218.449 70.5559C218.597 70.29 218.803 70.061 219.053 69.8861C219.313 69.704 219.602 69.5683 219.909 69.4853C220.225 69.3981 220.551 69.3538 220.878 69.3535C221.349 69.3526 221.816 69.446 222.251 69.628C222.682 69.8037 223.044 70.115 223.283 70.5148L222.256 71.2807Z" fill="#BE5527"/>
<path d="M229.023 71.2807C228.861 71.0805 228.663 70.9121 228.439 70.7838C228.178 70.6447 227.886 70.5766 227.59 70.5861C227.303 70.5783 227.019 70.6465 226.767 70.7838C226.66 70.8389 226.571 70.923 226.51 71.0265C226.449 71.1299 226.418 71.2484 226.421 71.3685C226.417 71.4614 226.433 71.554 226.467 71.6404C226.501 71.7269 226.553 71.8054 226.619 71.8709C226.76 72.0018 226.924 72.1068 227.102 72.1811C227.29 72.2602 227.486 72.3191 227.687 72.3568L228.219 72.4612C228.492 72.5272 228.761 72.6106 229.023 72.711C229.26 72.8024 229.48 72.9323 229.674 73.0953C229.856 73.2546 230.001 73.4512 230.1 73.6718C230.21 73.932 230.263 74.2128 230.256 74.4954C230.266 74.8498 230.179 75.2002 230.004 75.5084C229.843 75.7841 229.622 76.019 229.356 76.1947C229.079 76.377 228.771 76.5073 228.447 76.579C228.11 76.6579 227.766 76.6975 227.42 76.6971C226.898 76.7055 226.378 76.6122 225.891 76.4226C225.416 76.2149 225.01 75.877 224.719 75.448L225.724 74.6244C225.941 74.8437 226.183 75.0363 226.446 75.1982C226.739 75.3749 227.078 75.4626 227.42 75.4507C227.592 75.4508 227.763 75.4333 227.931 75.3986C228.091 75.3689 228.246 75.3142 228.389 75.2366C228.515 75.1684 228.625 75.0749 228.713 74.9621C228.797 74.8484 228.841 74.7106 228.84 74.5695C228.842 74.4802 228.827 74.3911 228.795 74.3077C228.763 74.2242 228.715 74.148 228.653 74.0836C228.528 73.953 228.377 73.8493 228.211 73.7789C228.033 73.705 227.849 73.6463 227.662 73.6032C227.47 73.5593 227.299 73.5208 227.151 73.4934C226.873 73.4285 226.598 73.3488 226.328 73.2545C226.083 73.1734 225.853 73.0538 225.647 72.9004C225.45 72.7555 225.288 72.5678 225.175 72.3513C225.048 72.0889 224.987 71.7998 224.996 71.5085C224.989 71.1763 225.068 70.8479 225.227 70.5559C225.375 70.29 225.581 70.061 225.831 69.8861C226.091 69.704 226.381 69.5683 226.687 69.4853C227.003 69.3981 227.329 69.3537 227.656 69.3535C228.123 69.3545 228.585 69.4478 229.015 69.628C229.446 69.8037 229.809 70.1149 230.047 70.5148L229.023 71.2807Z" fill="#BE5527"/>
<defs>
<linearGradient id="paint0_linear_302_2190" x1="28.3256" y1="76.2823" x2="28.3256" y2="19.5679" gradientUnits="userSpaceOnUse">
<stop stop-color="#272361"/>
<stop offset="0.12" stop-color="#2D2460"/>
<stop offset="0.26" stop-color="#3D275D"/>
<stop offset="0.43" stop-color="#572C58"/>
<stop offset="0.55" stop-color="#6F3054"/>
<stop offset="0.69" stop-color="#833948"/>
<stop offset="0.97" stop-color="#B8512A"/>
<stop offset="1" stop-color="#BE5427"/>
</linearGradient>
</defs>
</svg>
