<svg width="346" height="465" viewBox="0 0 346 465" fill="none" xmlns="http://www.w3.org/2000/svg">
<path d="M239.855 85.7306H343.944V0C301.07 38.0374 264.405 67.1051 239.855 85.7306Z" fill="#E9E4FE" fill-opacity="0.7"/>
<path d="M345.315 191.81V257.074C209.683 300.032 83.4045 432.518 53.9686 465H19.5458C93.6459 380.407 219.539 255.033 345.315 191.81ZM80.6433 465H116.221C155.915 431.062 237.06 372.542 345.315 352.093V300.835C282.377 318.624 173.62 369.296 80.6433 465ZM345.315 465V390.732C276.537 401.409 201.767 425.44 143.866 465H345.315ZM240.457 119.283V205.03C283.348 166.993 319.996 137.925 344.546 119.283H240.457ZM218.351 224.359H114.43V326.89C150.409 288.418 185.803 254.062 218.351 224.359ZM0 352.277V463.427C29.5028 423.716 60.3444 386.549 91.1358 352.277H0Z" fill="#E9E4FE" fill-opacity="0.7"/>
</svg>
