<svg width="453" height="640" viewBox="0 0 453 640" fill="none" xmlns="http://www.w3.org/2000/svg">
<path d="M138.346 117.844H1.79878V0C58.0424 52.2858 106.141 92.242 138.346 117.844Z" fill="#ECEFFF"/>
<path d="M0 263.658V353.37C177.929 412.418 343.586 594.533 382.202 639.182H427.359C330.151 522.902 164.999 350.563 0 263.658ZM347.209 639.182H300.536C248.464 592.532 142.014 512.09 0 483.981V413.523C82.5652 437.975 225.238 507.628 347.209 639.182ZM0 639.182V537.095C90.2268 551.771 188.313 584.803 264.27 639.182H0ZM137.557 163.963V281.83C81.2919 229.545 33.2149 189.588 1.00983 163.963H137.557ZM166.557 308.399H302.885V449.338C255.687 396.454 209.256 349.229 166.557 308.399ZM453 484.234V637.02C414.297 582.434 373.837 531.344 333.444 484.234H453Z" fill="#ECEFFF"/>
</svg>
