<svg width="212" height="75" viewBox="0 0 212 75" fill="none" xmlns="http://www.w3.org/2000/svg">
<path d="M36.228 13.1245H51.9497V0C45.474 5.82314 39.936 10.2731 36.228 13.1245Z" fill="#A7A1C2"/>
<path d="M52.1569 29.3644V39.3557C31.6707 45.9321 12.5975 66.2144 8.15149 71.187H2.95223C14.1444 58.2367 33.1595 39.0432 52.1569 29.3644ZM12.1805 71.187H17.5541C23.5496 65.9915 35.8059 57.0327 52.1569 53.9021V46.055C42.6506 48.7783 26.2238 56.5357 12.1805 71.187ZM52.1569 71.187V59.8174C41.7685 61.4519 30.4752 65.1308 21.7297 71.187H52.1569ZM36.319 18.2612V31.3883C42.7972 25.5651 48.3326 21.1152 52.0406 18.2612H36.319ZM32.98 34.3472H17.2837V50.0439C22.718 44.1541 28.0639 38.8946 32.98 34.3472ZM0 53.9302V70.9462C4.45615 64.8669 9.1145 59.177 13.7653 53.9302H0Z" fill="#A7A1C2"/>
<path d="M60.4043 52.6389C63.0153 52.2879 64.408 51.3452 64.408 49.1112V23.5335C64.408 21.2995 63.0153 20.3593 60.4043 20.0057V18.0664H76.3003V20.0057C73.6893 20.3593 72.2966 21.2867 72.2966 23.5335V49.1112C72.2966 51.2863 73.4568 52.5211 76.5935 52.3443L82.685 52.0523C86.4537 51.8755 88.1952 50.6407 89.646 48.2299L90.8643 46.1804H92.6614L91.6757 49.7671C91.2131 51.4707 90.9174 52.5851 91.0969 54.5885H60.4043V52.6389Z" fill="white"/>
<path d="M96.2581 39.0559V23.5335C96.2581 21.2995 94.8654 20.3593 92.2544 20.0057V18.0664H108.15V20.0057C105.539 20.3593 104.147 21.2867 104.147 23.5335V38.2309C104.147 47.4537 107.802 51.3426 113.372 51.3426C118.708 51.3426 123.061 47.8149 123.061 38.5845V23.5335C123.061 21.2995 121.435 20.3593 118.824 20.0057V18.0664H130.542V20.0057C127.934 20.3593 126.309 21.2867 126.309 23.5335V39.6451C126.309 49.2291 121.319 55.1675 111.631 55.1675C102.757 55.1675 96.2581 50.2871 96.2581 39.0559Z" fill="white"/>
<path d="M131.068 36.353C131.068 24.1226 140.815 17.1235 151.256 17.1235C160.54 17.1235 165.527 22.1807 165.527 26.8254C165.527 29.1797 164.192 31.5904 161.061 31.5904C158.28 31.5904 156.653 29.6485 156.653 27.0611C156.653 23.4744 154.853 19.3011 149.575 19.3011C143.891 19.3011 139.538 24.5914 139.538 33.4119C139.538 44.3486 146.848 50.5227 154.62 50.5227C157.871 50.5227 161.177 49.4057 164.192 45.9959L165.527 47.1129C164.01 49.9309 159.264 55.1674 150.503 55.1674C140.345 55.1674 131.068 48.1709 131.068 36.353Z" fill="white"/>
<path d="M206.315 52.6978V54.5808H190.823V52.6389C194.303 52.1112 194.303 50.4639 193.201 47.9942L192.274 45.9447C191.516 44.7099 190.535 44.3564 189.084 44.3564H179.522C177.955 44.3564 176.969 44.7099 176.213 46.1215L175.577 47.6586C174.358 50.4767 175.751 52.1291 179.464 52.6568V54.5988H166.573V52.6568C169.821 52.0112 171.039 50.2461 172.387 47.1898L182.469 23.8844C183.629 21.238 183.92 19.1808 183.92 18.0638L188.27 17.6514L200.754 45.7603C202.715 50.1693 203.355 52.0651 206.315 52.6978ZM189.782 40.3496L184.726 28.9441C184.322 27.945 184.031 27.945 183.624 28.9441L178.643 40.5366C178.352 41.359 178.931 41.7125 179.512 41.7125H188.968C189.605 41.7023 190.186 41.3052 189.779 40.3496H189.782Z" fill="white"/>
<path d="M60.4321 61.6543H61.7364V70.17H66.1571V71.4099H60.4321V61.6543Z" fill="white"/>
<path d="M67.4083 65.6767C67.7539 65.3555 68.1608 65.1097 68.6038 64.9542C69.0403 64.7962 69.5002 64.7147 69.9637 64.7134C70.376 64.7038 70.7869 64.7644 71.1794 64.8927C71.4884 64.9925 71.7733 65.1565 72.0161 65.3744C72.2281 65.5656 72.3933 65.8042 72.4988 66.0712C72.6038 66.3313 72.6571 66.6099 72.6556 66.891V70.2214C72.6556 70.4494 72.6556 70.6621 72.6707 70.8542C72.6859 71.0463 72.6909 71.2308 72.7112 71.405H71.6218C71.5965 71.0745 71.5813 70.744 71.5813 70.4136H71.5561C71.3245 70.7991 70.9897 71.1101 70.5905 71.3102C70.1826 71.4898 69.741 71.5772 69.2964 71.5664C69.007 71.5682 68.719 71.5259 68.4421 71.4409C68.1819 71.3658 67.9388 71.2396 67.7268 71.0694C67.5233 70.9039 67.3584 70.6948 67.244 70.4571C67.1221 70.1918 67.0615 69.9018 67.067 69.6091C67.0542 69.2355 67.151 68.8664 67.3451 68.5485C67.5379 68.257 67.7983 68.0177 68.1034 67.8517C68.4561 67.6619 68.8368 67.5312 69.2307 67.4648C69.6865 67.386 70.1483 67.3474 70.6107 67.3496H71.508V67.0729C71.5074 66.9028 71.4757 66.7343 71.4145 66.5759C71.3494 66.4096 71.2523 66.258 71.1289 66.1301C70.9937 65.991 70.8309 65.8827 70.6512 65.8124C70.4344 65.7283 70.2033 65.6883 69.9712 65.6946C69.7636 65.6915 69.5564 65.7147 69.3545 65.7638C69.1886 65.8054 69.0269 65.8628 68.8718 65.9354C68.7316 66.001 68.5993 66.0827 68.4774 66.1788L68.1362 66.435L67.4083 65.6767ZM70.861 68.2693C70.5637 68.2692 70.2667 68.2855 69.9712 68.3179C69.6884 68.3439 69.4098 68.4059 69.1422 68.5024C68.9115 68.5815 68.702 68.7139 68.5305 68.8892C68.4507 68.973 68.3883 69.0722 68.347 69.1809C68.3058 69.2896 68.2865 69.4056 68.2904 69.522C68.2773 69.6791 68.3049 69.8369 68.3706 69.9798C68.4362 70.1227 68.5375 70.2457 68.6645 70.3367C68.9702 70.5188 69.3212 70.6077 69.6755 70.5929C69.9705 70.6011 70.2634 70.5416 70.5324 70.4187C70.7538 70.3161 70.9491 70.1636 71.1036 69.9729C71.2472 69.791 71.3537 69.582 71.417 69.3581C71.4787 69.1407 71.5102 68.9156 71.5106 68.6894V68.277L70.861 68.2693Z" fill="white"/>
<path d="M78.0951 65.9533H76.341V68.9173C76.341 69.0992 76.341 69.2811 76.3561 69.4605C76.3602 69.626 76.3945 69.7892 76.4572 69.9421C76.5121 70.0817 76.6061 70.2019 76.7277 70.288C76.8901 70.3853 77.0777 70.4308 77.2661 70.4186C77.4161 70.4184 77.5658 70.4047 77.7134 70.3776C77.8618 70.3526 78.0046 70.3014 78.1355 70.2265V71.3563C77.9601 71.4491 77.7688 71.5073 77.5719 71.5279C77.3945 71.5561 77.2155 71.5724 77.036 71.5766C76.6602 71.5954 76.285 71.527 75.9391 71.3768C75.704 71.2652 75.5057 71.0873 75.3678 70.8644C75.2441 70.6472 75.1699 70.4047 75.1505 70.1547C75.1277 69.8985 75.1176 69.6424 75.1176 69.3631V65.9533H73.7021V64.8747H75.1176V63.043H76.341V64.8747H78.0951V65.9533Z" fill="white"/>
<path d="M79.6823 62.5354C79.6836 62.3234 79.7576 62.1183 79.8916 61.9554C80.0255 61.7925 80.2112 61.6819 80.4168 61.6424C80.6223 61.603 80.8351 61.6372 81.0185 61.7391C81.202 61.8411 81.3448 62.0045 81.4225 62.2014C81.5002 62.3983 81.508 62.6164 81.4445 62.8185C81.381 63.0206 81.2502 63.194 81.0745 63.3092C80.8988 63.4243 80.6891 63.4739 80.4812 63.4496C80.2734 63.4253 80.0803 63.3285 79.9351 63.1759C79.8526 63.0918 79.7877 62.9918 79.7443 62.8818C79.7009 62.7717 79.6798 62.6539 79.6823 62.5354ZM79.968 64.877H81.1989V71.4098H79.9755L79.968 64.877Z" fill="white"/>
<path d="M83.3452 64.8746H84.5686V65.8814H84.5938C84.763 65.5172 85.0454 65.2193 85.3976 65.0334C85.8024 64.8117 86.2571 64.7005 86.717 64.7106C87.0192 64.7101 87.3196 64.7585 87.6067 64.8541C87.8888 64.9454 88.1477 65.0985 88.365 65.3024C88.5855 65.5193 88.7578 65.7813 88.8705 66.071C89.0043 66.4301 89.0686 66.8119 89.0601 67.1956V71.3971H87.8368V67.5517C87.8422 67.29 87.8002 67.0295 87.7129 66.7832C87.6425 66.5903 87.5312 66.4154 87.3868 66.2708C87.2548 66.1394 87.0948 66.0404 86.9192 65.9813C86.7417 65.9206 86.5555 65.8903 86.3682 65.8916C86.127 65.8895 85.8873 65.9311 85.6605 66.0146C85.4426 66.0985 85.247 66.2327 85.0893 66.4066C84.915 66.6037 84.7855 66.8372 84.7101 67.0906C84.6131 67.4072 84.567 67.7377 84.5736 68.0692V71.4304H83.3503L83.3452 64.8746Z" fill="white"/>
<path d="M90.8037 68.1437C90.7972 67.6859 90.8833 67.2317 91.0564 66.8089C91.2299 66.4023 91.4768 66.0322 91.7844 65.7176C92.0978 65.4041 92.4676 65.1545 92.8738 64.9823C93.5048 64.7127 94.2006 64.6387 94.8731 64.7695C95.5456 64.9004 96.1649 65.2303 96.6525 65.7176C96.961 66.0315 97.208 66.4018 97.3805 66.8089C97.5592 67.2304 97.6496 67.6849 97.6459 68.1437C97.6485 68.5959 97.562 69.0442 97.3914 69.4621C97.2208 69.88 96.9696 70.2592 96.6525 70.5775C96.3392 70.8885 95.9704 71.1363 95.5657 71.3076C94.7034 71.667 93.736 71.667 92.8738 71.3076C92.4683 71.1363 92.0986 70.8886 91.7844 70.5775C91.4671 70.2595 91.2159 69.8803 91.0457 69.4623C90.8755 69.0443 90.7898 68.5959 90.7936 68.1437H90.8037ZM92.1079 68.1437C92.1052 68.4558 92.1557 68.7661 92.2571 69.0608C92.3487 69.3263 92.4922 69.5703 92.6792 69.7782C92.8619 69.9807 93.0839 70.1429 93.3313 70.2547C93.8993 70.4842 94.5326 70.4842 95.1006 70.2547C95.3523 70.1476 95.5788 69.9878 95.7654 69.7858C95.9531 69.5786 96.0968 69.3344 96.1875 69.0685C96.3862 68.4745 96.3862 67.8307 96.1875 67.2368C96.0974 66.9705 95.9537 66.7263 95.7654 66.5194C95.5788 66.3175 95.3523 66.1577 95.1006 66.0506C94.5326 65.8211 93.8993 65.8211 93.3313 66.0506C93.0792 66.1583 92.8519 66.3179 92.664 66.5194C92.4766 66.7269 92.3329 66.971 92.2419 67.2368C92.1439 67.5286 92.0961 67.8354 92.1003 68.1437H92.1079Z" fill="white"/>
<path d="M104.814 61.6543V67.6337C104.816 67.9527 104.857 68.2702 104.935 68.579C105.017 68.9021 105.156 69.2076 105.345 69.4808C105.542 69.7629 105.802 69.9945 106.103 70.1572C106.459 70.3281 106.847 70.4167 107.241 70.4167C107.634 70.4167 108.022 70.3281 108.378 70.1572C108.679 69.9945 108.939 69.7629 109.136 69.4808C109.327 69.2087 109.466 68.9029 109.546 68.579C109.624 68.2702 109.665 67.9527 109.667 67.6337V61.6543H110.974V67.8412C110.981 68.3719 110.883 68.8987 110.688 69.3912C110.505 69.8414 110.237 70.2512 109.9 70.5978C109.562 70.9389 109.16 71.2065 108.717 71.3843C107.771 71.7498 106.725 71.7498 105.78 71.3843C105.335 71.2072 104.932 70.9395 104.594 70.5978C104.257 70.2517 103.989 69.8417 103.808 69.3912C103.612 68.8991 103.514 68.372 103.522 67.8412V61.6543H104.814Z" fill="white"/>
<path d="M124.15 63.7626C123.879 63.4042 123.524 63.1199 123.117 62.9351C122.712 62.7452 122.271 62.6464 121.825 62.6456C121.317 62.6377 120.813 62.7435 120.349 62.9556C119.919 63.1552 119.535 63.4441 119.222 63.8036C118.902 64.1729 118.655 64.6007 118.494 65.064C118.321 65.5618 118.235 66.0863 118.241 66.614C118.24 67.112 118.326 67.6063 118.494 68.0742C118.648 68.5221 118.887 68.9347 119.199 69.2886C119.514 69.6421 119.899 69.9241 120.329 70.116C120.807 70.326 121.324 70.4291 121.845 70.4184C122.351 70.4288 122.852 70.3108 123.301 70.0751C123.722 69.8387 124.084 69.5085 124.36 69.1092L125.462 69.9495C125.345 70.1029 125.217 70.2484 125.081 70.385C124.864 70.6021 124.622 70.7914 124.36 70.9487C124.02 71.1566 123.657 71.3234 123.278 71.4457C122.806 71.5949 122.313 71.6667 121.818 71.6583C121.107 71.6697 120.403 71.5191 119.758 71.2177C118.582 70.6654 117.667 69.6686 117.207 68.4406C116.985 67.8577 116.871 67.2387 116.868 66.614C116.861 65.9009 116.985 65.1927 117.235 64.526C117.465 63.9115 117.814 63.3497 118.261 62.8736C118.709 62.4043 119.249 62.0352 119.846 61.7899C120.495 61.5277 121.188 61.3971 121.886 61.4057C122.527 61.4065 123.162 61.5326 123.756 61.7771C124.35 62.0125 124.869 62.4075 125.258 62.9197L124.15 63.7626Z" fill="white"/>
<path d="M126.597 68.1433C126.589 67.6855 126.675 67.231 126.85 66.8086C127.195 65.9824 127.847 65.3266 128.665 64.982C129.528 64.6232 130.496 64.6232 131.359 64.982C132.177 65.3266 132.828 65.9824 133.174 66.8086C133.353 67.23 133.443 67.6846 133.439 68.1433C133.442 68.5956 133.355 69.0438 133.185 69.4617C133.014 69.8797 132.763 70.2589 132.446 70.5771C132.132 70.8876 131.763 71.1353 131.359 71.3072C130.726 71.5779 130.029 71.6529 129.354 71.523C128.68 71.3931 128.058 71.064 127.568 70.5771C127.251 70.2589 126.999 69.8797 126.829 69.4617C126.658 69.0438 126.572 68.5956 126.574 68.1433H126.597ZM127.904 68.1433C127.9 68.4555 127.95 68.766 128.053 69.0605C128.144 69.3264 128.287 69.5706 128.475 69.7778C128.662 69.9797 128.888 70.1395 129.14 70.2466C129.708 70.4762 130.341 70.4762 130.909 70.2466C131.162 70.1395 131.389 69.9798 131.576 69.7778C131.763 69.5699 131.907 69.3259 131.998 69.0605C132.197 68.4665 132.197 67.8227 131.998 67.2287C131.907 66.963 131.764 66.7189 131.576 66.5114C131.389 66.3094 131.162 66.1496 130.909 66.0426C130.341 65.813 129.708 65.813 129.14 66.0426C128.888 66.1497 128.662 66.3094 128.475 66.5114C128.287 66.7182 128.143 66.9625 128.053 67.2287C127.95 67.5223 127.9 67.8319 127.904 68.1433Z" fill="white"/>
<path d="M135.289 60.9907H136.513V71.4099H135.289V60.9907Z" fill="white"/>
<path d="M138.752 60.9907H139.978V71.4099H138.752V60.9907Z" fill="white"/>
<path d="M143.049 68.5998C143.048 68.8673 143.112 69.131 143.234 69.3683C143.354 69.5983 143.518 69.802 143.716 69.9678C143.923 70.1367 144.158 70.2677 144.409 70.3546C144.672 70.4447 144.948 70.4905 145.225 70.4904C145.574 70.5031 145.919 70.4142 146.219 70.2342C146.514 70.0426 146.776 69.8029 146.995 69.5246L147.917 70.2419C147.243 71.1335 146.292 71.5792 145.064 71.5792C144.591 71.5877 144.122 71.5006 143.684 71.323C143.287 71.16 142.929 70.9128 142.635 70.598C142.345 70.2836 142.121 69.9133 141.975 69.5092C141.818 69.0744 141.74 68.6144 141.745 68.1514C141.74 67.6864 141.826 67.2251 141.998 66.7936C142.156 66.3892 142.391 66.0201 142.69 65.7074C142.988 65.3945 143.347 65.1476 143.744 64.9824C144.167 64.807 144.62 64.7199 145.076 64.7262C145.576 64.7103 146.072 64.8139 146.525 65.0285C146.902 65.2174 147.234 65.4876 147.498 65.8201C147.75 66.1485 147.937 66.5235 148.049 66.9243C148.16 67.3305 148.217 67.7502 148.218 68.1719V68.6126L143.049 68.5998ZM146.916 67.6083C146.913 67.3469 146.87 67.0876 146.787 66.8397C146.716 66.6171 146.598 66.4126 146.441 66.2403C146.281 66.064 146.083 65.9273 145.862 65.8406C145.605 65.7382 145.33 65.6886 145.053 65.6946C144.771 65.692 144.491 65.7505 144.232 65.8662C143.768 66.0763 143.399 66.4559 143.198 66.9294C143.105 67.1398 143.056 67.3675 143.054 67.5981L146.916 67.6083Z" fill="white"/>
<path d="M156.349 71.3562C156.354 71.8212 156.268 72.2827 156.097 72.714C155.935 73.1141 155.692 73.4754 155.384 73.7746C155.062 74.0803 154.683 74.3173 154.269 74.4714C153.807 74.6434 153.318 74.7301 152.826 74.7276C152.251 74.7357 151.679 74.6491 151.132 74.4714C150.587 74.2766 150.089 73.9666 149.671 73.562L150.5 72.5141C150.791 72.844 151.142 73.1136 151.534 73.3083C151.93 73.4929 152.362 73.5848 152.798 73.5773C153.184 73.5901 153.569 73.522 153.928 73.3775C154.2 73.2631 154.444 73.0879 154.641 72.8651C154.817 72.6555 154.945 72.4087 155.015 72.1427C155.087 71.8747 155.124 71.5981 155.123 71.3203V70.357H155.083C154.86 70.7413 154.525 71.0464 154.125 71.2306C153.729 71.4179 153.298 71.515 152.861 71.515C152.412 71.5185 151.966 71.4314 151.549 71.2588C151.159 71.0983 150.805 70.8595 150.508 70.5569C150.216 70.2513 149.985 69.8911 149.828 69.4963C149.66 69.0728 149.574 68.6205 149.575 68.1641C149.572 67.7062 149.65 67.2514 149.805 66.8217C149.952 66.4158 150.176 66.0433 150.465 65.7252C150.754 65.4098 151.107 65.1608 151.499 64.995C151.928 64.8175 152.388 64.7303 152.851 64.7389C153.288 64.7414 153.719 64.8402 154.115 65.0283C154.506 65.204 154.843 65.4848 155.088 65.8405H155.113V64.8746H156.339L156.349 71.3562ZM153.003 65.8712C152.699 65.8665 152.398 65.9249 152.118 66.0428C151.867 66.1505 151.64 66.3102 151.453 66.5117C151.266 66.7191 151.122 66.9632 151.031 67.229C150.93 67.5229 150.879 67.8323 150.882 68.1436C150.869 68.4361 150.914 68.7282 151.014 69.0027C151.115 69.2773 151.268 69.5287 151.466 69.7422C151.892 70.1282 152.444 70.3416 153.015 70.3416C153.587 70.3416 154.139 70.1282 154.565 69.7422C154.76 69.5283 154.91 69.2773 155.008 69.0037C155.107 68.7301 155.15 68.4395 155.136 68.1487C155.14 67.8373 155.09 67.5277 154.987 67.2341C154.897 66.9679 154.753 66.7236 154.565 66.5168C154.378 66.3148 154.152 66.1551 153.9 66.048C153.616 65.9263 153.311 65.8661 153.003 65.8712Z" fill="white"/>
<path d="M159.327 68.5998C159.325 68.8671 159.388 69.1308 159.509 69.3683C159.629 69.5983 159.793 69.802 159.992 69.9678C160.199 70.137 160.435 70.2679 160.687 70.3546C160.949 70.4448 161.224 70.4906 161.501 70.4904C161.849 70.5031 162.194 70.4142 162.494 70.2342C162.789 70.0426 163.052 69.8029 163.27 69.5246L164.195 70.2419C163.521 71.1335 162.569 71.5792 161.339 71.5792C160.867 71.5877 160.397 71.5006 159.959 71.323C159.563 71.1594 159.207 70.9122 158.912 70.598C158.623 70.2836 158.398 69.9133 158.253 69.5092C158.095 69.0745 158.016 68.6145 158.02 68.1514C158.016 67.6864 158.102 67.2251 158.273 66.7936C158.432 66.3895 158.667 66.0206 158.965 65.7074C159.265 65.3956 159.623 65.1489 160.02 64.9824C160.442 64.8072 160.895 64.7201 161.352 64.7262C161.851 64.7103 162.347 64.8139 162.8 65.0285C163.177 65.2174 163.509 65.4876 163.773 65.8201C164.027 66.1479 164.214 66.5231 164.324 66.9243C164.437 67.3303 164.494 67.7501 164.493 68.1719V68.6126L159.327 68.5998ZM163.189 67.6083C163.184 67.3469 163.139 67.0877 163.058 66.8397C162.986 66.6171 162.868 66.4126 162.711 66.2403C162.552 66.0647 162.354 65.928 162.135 65.8406C161.877 65.7384 161.601 65.6888 161.324 65.6946C161.041 65.6923 160.761 65.7508 160.502 65.8662C160.265 65.9732 160.051 66.1254 159.87 66.3146C159.702 66.494 159.566 66.7021 159.468 66.9294C159.377 67.1403 159.329 67.3678 159.327 67.5981L163.189 67.6083Z" fill="white"/>
<path d="M173.481 61.6543H174.664L178.784 71.4099H177.268L176.302 68.9992H171.712L170.762 71.4099H169.245L173.481 61.6543ZM175.819 67.8412L174.025 63.3631H173.997L172.175 67.8412H175.819Z" fill="white"/>
<path d="M184.534 66.6139C184.33 66.3914 184.089 66.2075 183.822 66.0707C183.543 65.9394 183.239 65.8754 182.932 65.8837C182.629 65.8759 182.329 65.9399 182.055 66.0707C181.81 66.1912 181.596 66.3664 181.428 66.5831C181.258 66.8053 181.129 67.0571 181.049 67.3261C180.961 67.6096 180.918 67.9052 180.92 68.2022C180.918 68.4959 180.968 68.7877 181.069 69.063C181.163 69.3246 181.305 69.5655 181.489 69.7726C181.672 69.9761 181.895 70.1384 182.143 70.2492C182.414 70.3676 182.706 70.4262 183 70.4208C183.305 70.43 183.607 70.366 183.882 70.2338C184.142 70.0995 184.373 69.9149 184.562 69.6907L185.434 70.572C185.133 70.9172 184.752 71.1813 184.325 71.3405C183.895 71.4966 183.442 71.5755 182.985 71.5736C182.518 71.5775 182.055 71.4905 181.62 71.3175C181.221 71.1609 180.857 70.9239 180.551 70.6206C180.248 70.3166 180.012 69.9507 179.858 69.5472C179.687 69.1058 179.602 68.6353 179.606 68.1612C179.602 67.6855 179.688 67.2135 179.858 66.7701C180.01 66.3643 180.244 65.9952 180.545 65.6863C180.845 65.3775 181.207 65.1358 181.605 64.9768C182.044 64.8005 182.513 64.7134 182.985 64.7206C183.448 64.7184 183.907 64.8053 184.337 64.9768C184.766 65.1405 185.15 65.4037 185.459 65.7454L184.534 66.6139Z" fill="white"/>
<path d="M191.293 66.6141C191.088 66.3926 190.847 66.2088 190.58 66.071C190.301 65.9397 189.996 65.8757 189.688 65.884C189.385 65.8764 189.085 65.9404 188.811 66.071C188.567 66.1915 188.354 66.3667 188.187 66.5834C188.015 66.8047 187.885 67.0567 187.805 67.3263C187.719 67.6101 187.675 67.9055 187.676 68.2025C187.675 68.4961 187.726 68.7876 187.825 69.0633C187.92 69.325 188.063 69.5659 188.247 69.7729C188.429 69.9776 188.652 70.1416 188.9 70.2545C189.17 70.3725 189.462 70.431 189.756 70.4262C190.062 70.435 190.365 70.371 190.641 70.2392C190.9 70.1039 191.131 69.9195 191.321 69.696L192.19 70.5773C191.89 70.922 191.509 71.186 191.083 71.3459C190.654 71.5018 190.2 71.5806 189.744 71.579C189.276 71.5828 188.812 71.4958 188.376 71.3228C187.978 71.1662 187.615 70.9292 187.31 70.626C187.006 70.322 186.77 69.9561 186.617 69.5526C186.446 69.1112 186.36 68.6407 186.364 68.1666C186.361 67.6909 186.447 67.2188 186.617 66.7755C186.768 66.3691 187.001 65.9995 187.302 65.6905C187.603 65.3815 187.965 65.1402 188.364 64.9822C188.803 64.8059 189.272 64.7188 189.744 64.726C190.206 64.724 190.665 64.8109 191.096 64.9822C191.524 65.1471 191.908 65.4102 192.218 65.7507L191.293 66.6141Z" fill="white"/>
<path d="M194.367 68.5998C194.365 68.8671 194.428 69.1308 194.549 69.3683C194.669 69.5983 194.833 69.802 195.032 69.9678C195.239 70.137 195.475 70.2679 195.727 70.3546C195.99 70.4447 196.266 70.4905 196.543 70.4904C196.891 70.5028 197.235 70.4139 197.534 70.2342C197.831 70.044 198.093 69.8041 198.31 69.5246L199.235 70.2419C198.561 71.1335 197.609 71.5792 196.379 71.5792C195.907 71.5877 195.437 71.5006 194.999 71.323C194.603 71.1594 194.247 70.9122 193.952 70.598C193.663 70.2836 193.438 69.9133 193.293 69.5092C193.136 69.0744 193.058 68.6144 193.063 68.1514C193.058 67.6864 193.144 67.2251 193.315 66.7936C193.475 66.3895 193.71 66.0206 194.008 65.7074C194.307 65.3956 194.666 65.1489 195.062 64.9824C195.485 64.8072 195.938 64.7201 196.394 64.7262C196.894 64.7103 197.39 64.8139 197.842 65.0285C198.22 65.2174 198.552 65.4876 198.816 65.8201C199.068 66.1481 199.255 66.5233 199.364 66.9243C199.477 67.3303 199.534 67.7501 199.533 68.1719V68.6126L194.367 68.5998ZM198.227 67.6083C198.221 67.3471 198.177 67.0882 198.098 66.8397C198.024 66.6174 197.905 66.4131 197.749 66.2403C197.589 66.0647 197.392 65.928 197.173 65.8406C196.915 65.7387 196.64 65.6891 196.364 65.6946C196.08 65.692 195.799 65.7505 195.54 65.8662C195.303 65.9739 195.089 66.126 194.908 66.3146C194.739 66.494 194.603 66.7021 194.506 66.9294C194.415 67.1403 194.367 67.3678 194.364 67.5981L198.227 67.6083Z" fill="white"/>
<path d="M204.634 66.5192C204.484 66.3323 204.301 66.1751 204.095 66.0554C203.855 65.9257 203.586 65.8621 203.314 65.871C203.05 65.8637 202.788 65.9273 202.556 66.0554C202.458 66.1069 202.376 66.1854 202.319 66.2819C202.263 66.3784 202.235 66.489 202.237 66.6011C202.234 66.6878 202.249 66.7742 202.28 66.8549C202.311 66.9355 202.359 67.0088 202.419 67.07C202.547 67.1911 202.694 67.289 202.854 67.3594C203.027 67.4332 203.208 67.4882 203.392 67.5234L203.883 67.6208C204.134 67.682 204.382 67.7599 204.623 67.8539C204.841 67.9392 205.044 68.0604 205.222 68.2125C205.39 68.3618 205.524 68.5451 205.617 68.7505C205.716 68.9939 205.765 69.2557 205.758 69.5191C205.767 69.8495 205.688 70.1761 205.528 70.4644C205.379 70.7212 205.174 70.9402 204.929 71.1049C204.674 71.275 204.391 71.3966 204.093 71.4636C203.783 71.5371 203.466 71.5741 203.147 71.5737C202.666 71.5813 202.188 71.4943 201.739 71.3175C201.302 71.1237 200.928 70.8084 200.66 70.4081L201.585 69.6395C201.785 69.8441 202.008 70.0239 202.25 70.1749C202.52 70.3399 202.832 70.4217 203.147 70.4106C203.305 70.4107 203.463 70.3944 203.617 70.362C203.765 70.3346 203.908 70.2836 204.04 70.2108C204.155 70.1472 204.257 70.0599 204.338 69.9546C204.415 69.8485 204.456 69.7199 204.454 69.5883C204.457 69.5049 204.443 69.4218 204.413 69.3439C204.384 69.2661 204.339 69.195 204.282 69.1348C204.167 69.0129 204.029 68.9161 203.875 68.8505C203.712 68.7815 203.542 68.7267 203.37 68.6865C203.193 68.6455 203.036 68.6096 202.9 68.584C202.643 68.5235 202.39 68.4491 202.141 68.3611C201.916 68.2854 201.705 68.1739 201.514 68.0307C201.333 67.8954 201.184 67.7202 201.08 67.5183C200.963 67.2734 200.907 67.0035 200.915 66.7318C200.909 66.4218 200.982 66.1153 201.128 65.8428C201.264 65.5946 201.454 65.381 201.684 65.2177C201.923 65.0477 202.19 64.9212 202.472 64.8437C202.763 64.7623 203.063 64.7209 203.365 64.7207C203.799 64.7199 204.228 64.807 204.628 64.9769C205.026 65.1408 205.359 65.4313 205.579 65.8044L204.634 66.5192Z" fill="white"/>
<path d="M210.865 66.5191C210.715 66.3323 210.532 66.1751 210.326 66.0554C210.086 65.9257 209.817 65.8621 209.545 65.871C209.281 65.8637 209.019 65.9273 208.787 66.0554C208.689 66.1069 208.607 66.1854 208.55 66.2819C208.494 66.3784 208.466 66.489 208.468 66.6011C208.465 66.6878 208.48 66.7742 208.511 66.8549C208.542 66.9355 208.59 67.0088 208.65 67.0699C208.781 67.1921 208.931 67.2901 209.095 67.3594C209.269 67.4332 209.449 67.4882 209.634 67.5234L210.124 67.6207C210.376 67.6824 210.623 67.7602 210.865 67.8539C211.082 67.9392 211.285 68.0604 211.464 68.2125C211.631 68.3612 211.765 68.5447 211.855 68.7505C211.957 68.9933 212.006 69.2554 212 69.5191C212.009 69.8498 211.928 70.1768 211.767 70.4644C211.62 70.7217 211.415 70.9409 211.17 71.1049C210.915 71.275 210.632 71.3966 210.334 71.4636C210.024 71.5371 209.707 71.5741 209.389 71.5737C208.907 71.5816 208.429 71.4945 207.981 71.3175C207.543 71.1237 207.169 70.8084 206.901 70.4081L207.826 69.6395C208.026 69.8441 208.249 70.0239 208.491 70.1749C208.762 70.3398 209.073 70.4217 209.389 70.4106C209.546 70.4107 209.704 70.3944 209.859 70.362C210.006 70.3342 210.149 70.2832 210.281 70.2108C210.397 70.1472 210.498 70.0599 210.579 69.9546C210.656 69.8485 210.697 69.7199 210.695 69.5883C210.698 69.5049 210.684 69.4218 210.655 69.3439C210.625 69.2661 210.58 69.195 210.523 69.1348C210.408 69.0129 210.27 68.9161 210.116 68.8504C209.953 68.7815 209.784 68.7267 209.611 68.6865C209.434 68.6455 209.277 68.6096 209.141 68.584C208.884 68.5235 208.631 68.4491 208.383 68.3611C208.158 68.2854 207.946 68.1738 207.756 68.0307C207.574 67.8954 207.426 67.7202 207.321 67.5183C207.204 67.2734 207.148 67.0035 207.157 66.7318C207.15 66.4218 207.223 66.1153 207.369 65.8428C207.505 65.5946 207.696 65.3809 207.925 65.2177C208.165 65.0477 208.431 64.9212 208.714 64.8437C209.004 64.7623 209.304 64.7209 209.606 64.7207C210.036 64.7216 210.461 64.8087 210.857 64.9769C211.254 65.1408 211.588 65.4313 211.807 65.8044L210.865 66.5191Z" fill="white"/>
</svg>
