<svg width="1451" height="133" viewBox="0 0 1451 133" fill="none" xmlns="http://www.w3.org/2000/svg">
<path fill-rule="evenodd" clip-rule="evenodd" d="M0.807617 0.0012207C0.807617 0.0012207 78.9024 46.0013 255.936 46.0014C432.969 46.0016 532.988 25.0016 731.026 33.0018C929.063 41.002 1065.09 85.0021 1222.12 85.0022C1379.15 85.0023 1450.85 47.6018 1450.85 47.6018L1450.74 128.055L0.807688 129.054" fill="url(#paint0_linear_1198_803)" fill-opacity="0.65"/>
<path fill-rule="evenodd" clip-rule="evenodd" d="M1451 87.3949C1451 87.3949 1339 114 1164.59 102.721C990.173 91.4419 839.942 45.1337 717.831 45.1337C595.72 45.1337 477 56.0001 295 68.0002C80.4658 82.1455 1 34.0001 1 34.0001L1.00001 129L1451 129" fill="white"/>
<defs>
<linearGradient id="paint0_linear_1198_803" x1="283.707" y1="79.9634" x2="1369.71" y2="59.5729" gradientUnits="userSpaceOnUse">
<stop offset="0.0834239" stop-color="#BAD37E"/>
<stop offset="1" stop-color="#046BAC"/>
</linearGradient>
</defs>
</svg>
